<svg width="1920" height="955" viewBox="0 0 1920 955" fill="none" xmlns="http://www.w3.org/2000/svg">
<rect width="1920" height="800" fill="#F4FAFD"/>
<g clip-path="url(#clip0_403_1447)">
<path d="M1076 583.548L1051.46 559H1044.21L1076 590.794V583.548Z" fill="white"/>
<path d="M1076 559H1068.75L1076 566.247V559Z" fill="white"/>
<path d="M1076 608.096L1026.91 559H1019.66L1076 615.342V608.096Z" fill="white"/>
<path d="M1076 657.191L977.814 559H970.562L1076 664.438V657.191Z" fill="white"/>
<path d="M1076 632.643L1002.36 559H995.11L1076 639.89V632.643Z" fill="white"/>
<path d="M1076 681.739L953.267 559H946.014L1076 688.986V681.739Z" fill="white"/>
<path d="M1076 706.281L928.719 559H921.472L1076 713.533V706.281Z" fill="white"/>
<path d="M1076 730.829L904.171 559H896.924L1076 738.081V730.829Z" fill="white"/>
<path d="M1076 759V755.377L879.623 559H876V562.623L1072.38 759H1076Z" fill="white"/>
<path d="M1055.08 759L876 579.924V587.171L1047.83 759H1055.08Z" fill="white"/>
<path d="M1030.53 759L876 604.472V611.719L1023.28 759H1030.53Z" fill="white"/>
<path d="M1005.99 759L876 629.014V636.267L998.739 759H1005.99Z" fill="white"/>
<path d="M981.438 759L876 653.562V660.814L974.191 759H981.438Z" fill="white"/>
<path d="M956.89 759L876 678.11V685.362L949.643 759H956.89Z" fill="white"/>
<path d="M932.342 759L876 702.658V709.91L925.096 759H932.342Z" fill="white"/>
<path d="M907.794 759L876 727.206V734.458L900.548 759H907.794Z" fill="white"/>
<path d="M883.247 759L876 751.753V759H883.247Z" fill="white"/>
</g>
<g clip-path="url(#clip1_403_1447)">
<path d="M1611.17 176.461L1608.55 179.082L1738.92 309.458L1741.54 306.837L1611.17 176.461Z" fill="#E8F8FF"/>
<path d="M1548.25 168.004L1545.63 170.624L1747.38 372.372L1750 369.752L1548.25 168.004Z" fill="#E8F8FF"/>
<path d="M1500.93 175.154L1498.31 177.774L1740.23 419.694L1742.85 417.073L1500.93 175.154Z" fill="#E8F8FF"/>
<path d="M1461.98 190.663L1459.36 193.284L1724.71 458.63L1727.33 456.01L1461.98 190.663Z" fill="#E8F8FF"/>
<path d="M1576.74 169.259L1574.12 171.879L1746.12 343.885L1748.74 341.265L1576.74 169.259Z" fill="#E8F8FF"/>
<path d="M1523.31 170.303L1520.69 172.924L1745.08 397.313L1747.7 394.692L1523.31 170.303Z" fill="#E8F8FF"/>
<path d="M1480.59 182.039L1477.97 184.66L1733.34 440.031L1735.96 437.41L1480.59 182.039Z" fill="#E8F8FF"/>
<path d="M1444.93 200.85L1442.31 203.471L1714.52 475.683L1717.14 473.062L1444.93 200.85Z" fill="#E8F8FF"/>
<path d="M1429.3 212.453L1426.68 215.074L1702.92 491.312L1705.54 488.692L1429.3 212.453Z" fill="#E8F8FF"/>
<path d="M1415.02 225.401L1412.4 228.021L1689.98 505.596L1692.6 502.976L1415.02 225.401Z" fill="#E8F8FF"/>
<path d="M1402.08 239.685L1399.46 242.305L1675.69 518.544L1678.32 515.924L1402.08 239.685Z" fill="#E8F8FF"/>
<path d="M1390.46 255.314L1387.84 257.935L1660.05 530.146L1662.67 527.526L1390.46 255.314Z" fill="#E8F8FF"/>
<path d="M1380.29 272.367L1377.67 274.987L1643.01 540.334L1645.63 537.713L1380.29 272.367Z" fill="#E8F8FF"/>
<path d="M1371.66 290.966L1369.04 293.587L1624.41 548.958L1627.03 546.337L1371.66 290.966Z" fill="#E8F8FF"/>
<path d="M1364.77 311.303L1362.15 313.923L1604.07 555.843L1606.69 553.222L1364.77 311.303Z" fill="#E8F8FF"/>
<path d="M1359.91 333.694L1357.29 336.314L1581.68 560.703L1584.3 558.082L1359.91 333.694Z" fill="#E8F8FF"/>
<path d="M1357.62 358.625L1354.99 361.246L1556.74 562.994L1559.36 560.373L1357.62 358.625Z" fill="#E8F8FF"/>
<path d="M1358.87 387.112L1356.25 389.733L1528.26 561.739L1530.88 559.118L1358.87 387.112Z" fill="#E8F8FF"/>
<path d="M1366.06 421.546L1363.44 424.167L1493.82 554.543L1496.44 551.922L1366.06 421.546Z" fill="#E8F8FF"/>
<path d="M1663.02 201.074L1660.4 203.695L1714.31 257.597L1716.93 254.977L1663.02 201.074Z" fill="#E8F8FF"/>
<path d="M1390.69 473.4L1388.07 476.02L1441.97 529.922L1444.59 527.302L1390.69 473.4Z" fill="#E8F8FF"/>
</g>
<g opacity="0.3" filter="url(#filter0_f_403_1447)">
<ellipse cx="1036.02" cy="327.582" rx="171.936" ry="176.203" transform="rotate(-30.017 1036.02 327.582)" fill="#6AD7FF"/>
</g>
<g opacity="0.3" filter="url(#filter1_f_403_1447)">
<ellipse cx="248.022" cy="582.582" rx="171.936" ry="176.203" transform="rotate(-90 248.022 582.582)" fill="#A0F3FF"/>
</g>
<g opacity="0.3" filter="url(#filter2_f_403_1447)">
<ellipse cx="1591.2" cy="579.936" rx="171.936" ry="176.203" transform="rotate(-90 1591.2 579.936)" fill="#94E2FF"/>
</g>
<defs>
<filter id="filter0_f_403_1447" x="662.981" y="-47.5936" width="746.081" height="750.351" filterUnits="userSpaceOnUse" color-interpolation-filters="sRGB">
<feFlood flood-opacity="0" result="BackgroundImageFix"/>
<feBlend mode="normal" in="SourceGraphic" in2="BackgroundImageFix" result="shape"/>
<feGaussianBlur stdDeviation="100" result="effect1_foregroundBlur_403_1447"/>
</filter>
<filter id="filter1_f_403_1447" x="-128.181" y="210.646" width="752.405" height="743.871" filterUnits="userSpaceOnUse" color-interpolation-filters="sRGB">
<feFlood flood-opacity="0" result="BackgroundImageFix"/>
<feBlend mode="normal" in="SourceGraphic" in2="BackgroundImageFix" result="shape"/>
<feGaussianBlur stdDeviation="100" result="effect1_foregroundBlur_403_1447"/>
</filter>
<filter id="filter2_f_403_1447" x="1215" y="208" width="752.406" height="743.871" filterUnits="userSpaceOnUse" color-interpolation-filters="sRGB">
<feFlood flood-opacity="0" result="BackgroundImageFix"/>
<feBlend mode="normal" in="SourceGraphic" in2="BackgroundImageFix" result="shape"/>
<feGaussianBlur stdDeviation="100" result="effect1_foregroundBlur_403_1447"/>
</filter>
<clipPath id="clip0_403_1447">
<rect width="200" height="200" fill="white" transform="translate(876 559)"/>
</clipPath>
<clipPath id="clip1_403_1447">
<rect width="395" height="395" fill="white" transform="translate(1355 168)"/>
</clipPath>
</defs>
</svg>
