<svg width="204" height="74" viewBox="0 0 204 74" fill="none" xmlns="http://www.w3.org/2000/svg">
<g clip-path="url(#clip0_424_2084)">
<path d="M160.106 47.6826C160.106 52.6217 157.791 56.7293 153.155 60.001C148.632 63.1918 143.056 64.7917 136.439 64.7917C133.956 64.7917 130.622 64.3827 126.448 63.5603C122.273 62.7424 118.443 62.3334 114.951 62.3334C112.911 62.3334 111.052 62.9986 109.379 64.3333C109.184 64.4142 109.026 64.3917 108.913 64.2524C108.805 64.1176 108.791 63.9378 108.872 63.7131C109.402 63.075 110.351 62.3963 111.717 61.6728C113.671 60.6481 115.697 60.1313 117.791 60.1313C120.306 60.1313 124.223 60.6661 129.541 61.7312C134.86 62.8008 138.641 63.3356 140.876 63.3356C144.783 63.3356 148.356 62.0188 151.599 59.3808C155.199 56.4102 157.004 52.7205 157.004 48.3073C157.004 45.1749 155.633 42.4964 152.897 40.2763L151.685 39.364C147.47 36.5327 141.785 35.1171 134.639 35.1171C128.831 35.1171 123.757 36.4474 119.433 39.1169C115.385 41.6111 113.359 44.3031 113.359 47.1883C113.359 50.0465 114.992 52.3385 118.262 54.0598C121.446 55.7226 125.548 56.5585 130.577 56.5585C134.792 56.5585 138.397 56.181 141.382 55.4305L144.403 54.4822C146.95 53.534 149.754 52.0329 152.816 49.9746C153.263 49.8398 153.485 49.9477 153.485 50.3072C153.485 50.3926 153.458 50.487 153.404 50.5993C150.749 52.8464 147.289 54.7339 143.015 56.2619L140.419 57.1337C136.647 58.2168 132.879 58.7561 129.107 58.7561C124.164 58.7561 120.143 57.7315 117.045 55.6777C113.834 53.5699 112.228 50.7791 112.228 47.3096C112.228 43.8402 114.756 40.6628 119.808 37.7776C124.779 34.9194 130.143 33.4902 135.896 33.4902C137.465 33.4902 138.971 33.5532 140.41 33.679C140.609 33.697 140.803 33.7149 141.002 33.7329C146.104 34.2408 150.391 35.5485 153.865 37.6563L154.874 38.3214C158.361 40.7572 160.106 43.8806 160.106 47.6826Z" fill="white"/>
<path d="M165.091 55.0078C166.176 53.4528 167.017 52.6753 167.605 52.6753C167.994 52.6753 168.193 52.936 168.193 53.4663C168.193 54.6842 167.555 55.9875 166.285 57.3762C165.014 58.7604 163.752 59.4839 162.494 59.5379C163.218 57.9065 164.082 56.3965 165.091 55.0078ZM167.981 61.0029C167.533 61.6141 166.891 62.2208 166.054 62.8365C164.991 63.587 164.046 63.9601 163.205 63.9601C162.173 63.9601 161.653 63.4747 161.653 62.504C161.653 62.0321 161.825 61.358 162.155 60.4681C163.553 60.3288 165.091 59.7041 166.764 58.5941C168.863 57.1515 169.907 55.5291 169.907 53.727C169.907 52.4776 169.166 51.8574 167.687 51.8574C166.04 51.8574 164.276 52.945 162.409 55.1201C160.536 57.2998 159.6 59.457 159.6 61.5962C159.6 63.7039 160.672 64.76 162.825 64.76C164.082 64.76 165.366 64.2881 166.678 63.3444C167.519 62.7017 168.175 62.0546 168.65 61.3849C168.569 60.931 168.342 60.8052 167.981 61.0029Z" fill="white"/>
<path d="M179.373 62.0638C179.147 62.6615 179.039 63.0435 179.039 63.2098C179.039 63.6278 179.288 63.8345 179.794 63.8345C180.803 63.8345 181.82 62.9447 182.856 61.1695C183.078 61.1155 183.231 61.0886 183.317 61.0886C183.539 61.0886 183.652 61.2009 183.652 61.4211C183.155 62.3649 182.481 63.1649 181.644 63.812C180.807 64.4637 180.038 64.7917 179.342 64.7917C178.532 64.7917 177.971 64.6389 177.664 64.3333C177.361 64.0322 177.203 63.5603 177.203 62.9177C177.203 62.311 177.343 61.5425 177.623 60.6302C177.818 59.9651 178.044 59.2864 178.293 58.5899H178.211C177.65 58.5899 177.053 58.6033 176.407 58.6348C175.932 58.6348 175.488 58.6483 175.068 58.6752C175.013 58.7876 174.955 58.9 174.9 59.0078L172.68 64.0053C172.454 64.3109 172.178 64.4996 171.843 64.567C171.508 64.6344 171.142 64.6704 170.753 64.6704C170.418 64.6704 170.251 64.5041 170.251 64.1715C170.251 64.0862 171.02 62.4368 172.553 59.219C173.896 56.3608 174.566 54.6665 174.566 54.1407C174.566 53.6104 174.371 53.3497 173.978 53.3497C173.896 53.3497 173.349 53.5025 172.345 53.8081C172.119 53.7272 172.01 53.5879 172.01 53.3902C172.01 53.143 172.16 52.9318 172.449 52.7655C172.743 52.5992 173.087 52.4509 173.476 52.3296C173.865 52.2037 174.258 52.1138 174.647 52.0554C175.036 52.0015 175.317 51.97 175.484 51.97C175.873 51.97 176.23 52.1049 176.551 52.3655C176.872 52.6262 177.035 52.9992 177.035 53.4711C177.035 54.2216 176.501 55.7001 175.443 57.9247H176.615C177.148 57.9517 177.786 57.9697 178.541 57.9697C178.568 57.9113 178.6 57.8573 178.623 57.7989C179.043 56.8012 179.487 55.8305 179.966 54.8867C180.056 54.7114 180.142 54.5362 180.228 54.3699C180.459 53.916 180.681 53.5025 180.893 53.1205C181.02 52.8913 181.142 52.6756 181.264 52.4734C181.572 52.2801 181.92 52.1408 182.309 52.0554C182.698 51.97 183.046 51.9341 183.354 51.9341C183.661 51.9341 183.815 52.0869 183.815 52.3925C183.788 52.3925 183.652 52.6352 183.417 53.1205C183.177 53.6059 182.879 54.2261 182.517 54.9721C182.291 55.435 182.06 55.9293 181.816 56.4462C181.68 56.7338 181.544 57.0349 181.404 57.3405C181.391 57.3675 181.377 57.3989 181.363 57.4259C180.956 58.3157 180.581 59.1606 180.233 59.9651C179.88 60.7695 179.595 61.4661 179.373 62.0638Z" fill="white"/>
<path d="M184.602 35.0991C184.326 35.7822 184.055 36.4698 183.792 37.1574C184.145 36.0878 184.489 35.3373 184.602 35.0991Z" fill="white"/>
<path d="M141.468 35.0674C141.111 34.6045 140.758 34.1461 140.405 33.6787C140.604 33.6967 140.799 33.7147 140.998 33.7326L141.138 34.1326C141.246 34.4382 141.36 34.7528 141.468 35.0674Z" fill="white"/>
<path d="M203.417 53.4262C203.806 52.6487 204.005 52.3027 204.005 52.388C204.005 52.0824 203.837 51.9296 203.502 51.9296C202.887 51.9296 202.277 52.1229 201.657 52.5139C200.205 53.3723 198.279 55.2867 195.877 58.2574L198.265 53.4711C198.64 52.7206 198.84 52.3431 198.849 52.3431C198.849 52.1229 198.654 52.0105 198.265 52.0105C197.51 52.0105 196.822 52.1993 196.212 52.5723C195.597 52.9453 194.579 53.8576 193.154 55.3002C191.73 56.7428 190.613 58.0192 189.803 59.1292L189.636 59.0843C191.087 56.1991 191.811 54.3115 191.811 53.4217C191.811 52.6577 191.467 52.1948 190.78 52.033C190.083 51.8667 189.391 51.6825 188.749 51.3634C181.495 47.7906 182.643 40.7213 183.788 37.1665C183.792 37.162 183.792 37.1575 183.792 37.1575C184.145 36.0834 184.489 35.3329 184.602 35.0992C184.611 35.0857 184.611 35.0722 184.62 35.0588C184.629 35.0318 184.638 35.0183 184.638 35.0183C186.031 31.5938 187.578 28.2008 188.745 24.5875C189.333 22.7854 189.78 20.9113 190.011 18.9743C190.219 17.0194 190.169 15.0824 189.889 13.1455C189.604 11.204 189.025 9.27606 188.08 7.4919C187.139 5.71223 185.818 4.09435 184.186 2.8405C183.372 2.21582 182.485 1.67203 181.531 1.24509C181.291 1.13723 181.047 1.03836 180.803 0.948476C180.676 0.903535 180.554 0.858594 180.427 0.813653L180.237 0.75523C180.174 0.732759 180.12 0.714783 180.025 0.692312C179.337 0.517042 178.804 0.517042 178.27 0.512548C177.221 0.521536 176.253 0.638383 175.289 0.773206C174.335 0.908029 173.39 1.07881 172.458 1.26756C171.522 1.45182 170.595 1.65405 169.677 1.86977C169.206 1.98212 168.777 2.0765 168.342 2.16638C167.904 2.25177 167.469 2.34165 167.026 2.40906C165.271 2.69668 163.494 2.81803 161.721 2.80005C159.948 2.7641 158.18 2.58433 156.443 2.24727C156.009 2.16638 155.579 2.06751 155.145 1.96864L154.706 1.85629L153.824 1.63158C152.906 1.39339 151.988 1.16419 151.052 0.95297C150.12 0.741747 149.179 0.535018 148.216 0.364242C147.777 0.287842 147.334 0.215937 146.882 0.157513C146.339 0.0856075 145.778 0.0316782 145.181 0.00471352C144.62 -0.0042747 144.064 -0.0222511 143.282 0.157513C143.169 0.184478 143.11 0.202454 143.042 0.220431L142.838 0.278854C142.703 0.319301 142.576 0.364242 142.44 0.404689C142.178 0.494571 141.92 0.593442 141.667 0.696806C140.654 1.11925 139.709 1.65405 138.836 2.29221C137.094 3.56854 135.647 5.23136 134.621 7.09192C134.331 7.62672 134.064 8.16602 133.834 8.72328C133.25 10.1075 132.848 11.5501 132.626 12.9972C132.436 14.2151 132.327 15.4195 132.323 16.6329C132.517 22.282 137.483 29.7557 138.243 31.1084L140.536 35.1172C142.033 37.7822 143.467 40.4832 144.471 43.3324C144.969 44.757 145.349 46.2176 145.498 47.7097C145.647 49.1927 145.552 50.7117 145.082 52.1319C144.62 53.552 143.779 54.8508 142.689 55.9114C141.599 56.981 140.297 57.8259 138.926 58.5405C140.333 57.9068 141.699 57.1383 142.875 56.1092C144.051 55.089 145.018 53.7902 145.593 52.3116C146.176 50.8376 146.375 49.2287 146.307 47.6513C146.244 46.0693 145.932 44.5144 145.502 43.0088C144.634 39.9933 143.327 37.1485 141.975 34.3667L139.921 30.2321C139.261 28.8794 137.714 24.4976 137.511 23.7561C137.031 22.0483 136.656 20.3495 136.507 18.6777C136.497 18.5474 136.488 18.4171 136.479 18.2912C136.389 16.7722 136.457 15.1723 136.706 13.6623C136.981 12.022 137.461 10.449 138.207 9.04237C138.962 7.6447 139.966 6.39983 141.21 5.43809C141.83 4.96172 142.495 4.54376 143.196 4.22019C143.372 4.13929 143.549 4.06739 143.725 3.99548C143.811 3.96402 143.901 3.92807 143.987 3.89661L144.218 3.82021C144.335 3.77527 144.724 3.73482 145.1 3.73482C145.878 3.73482 146.76 3.82471 147.637 3.94155C148.515 4.06289 149.41 4.21569 150.301 4.39096C151.192 4.56623 152.092 4.75948 152.983 4.96172L154.39 5.2763C154.58 5.31226 154.765 5.34821 154.955 5.38866C155.249 5.44258 155.543 5.49651 155.837 5.54146C157.194 5.76167 158.564 5.89649 159.935 5.95042C160.527 5.97289 161.115 5.97738 161.707 5.97289C163.666 5.94143 165.624 5.74818 167.546 5.37967C168.03 5.29428 168.501 5.18642 168.98 5.07856C169.455 4.96172 169.934 4.84487 170.369 4.72353C171.264 4.49433 172.155 4.27412 173.046 4.07188C173.937 3.86515 174.833 3.68539 175.715 3.52809C176.596 3.37979 177.487 3.25845 178.306 3.22699C178.704 3.21351 179.116 3.23148 179.337 3.28541C179.355 3.28541 179.41 3.30339 179.455 3.31687L179.6 3.35732C179.695 3.38428 179.79 3.42024 179.885 3.45169C180.074 3.51911 180.269 3.58652 180.459 3.66741C181.219 3.982 181.947 4.39546 182.625 4.88532C183.978 5.86953 185.104 7.16383 185.941 8.64239C186.773 10.1254 187.329 11.7838 187.637 13.5095C187.935 15.2352 188.03 17.0374 187.894 18.7766C187.741 20.5338 187.361 22.291 186.863 24.0392C185.873 27.5356 184.448 30.9691 183.168 34.4745C183.168 34.4745 183.164 34.479 183.164 34.488C182.784 35.5261 182.408 36.5688 182.064 37.6204C181.63 39.3237 181.305 41.5348 181.639 43.7998C181.956 45.9255 182.856 48.0917 184.801 49.9208L187.827 52.4869L188.917 53.4127C189.075 53.534 189.156 53.7632 189.156 54.1003C189.156 54.7924 188.473 56.5316 187.103 59.3045C186.791 59.9292 186.51 60.4954 186.262 61.0033C186.18 61.174 186.099 61.3358 186.026 61.4886H186.022C185.208 63.1649 184.796 64.0772 184.796 64.2165C184.796 64.5491 184.964 64.7154 185.298 64.7154C185.633 64.7154 186.008 64.612 186.429 64.4053C186.85 64.1986 187.098 64.0098 187.184 63.8435C187.537 63.3492 187.935 62.8054 188.374 62.2167H188.378C188.478 62.0818 188.577 61.9515 188.681 61.8122C189.183 61.1471 189.749 60.419 190.364 59.637C192.404 57.0305 193.756 55.5474 194.425 55.1834L194.593 55.3901C194.425 55.835 193.643 57.4844 192.25 60.3426C190.965 63.0076 190.323 64.4098 190.323 64.5446C190.323 64.7379 190.513 64.8053 190.911 64.7513C192.082 64.612 192.752 64.3648 192.919 64.0008C193.81 62.3919 194.774 60.9044 195.809 59.5472C197.817 56.9675 199.174 55.4845 199.875 55.098L199.997 55.3047C199.522 56.1092 198.993 57.2057 198.405 58.5899C197.541 60.5853 197.107 62.0279 197.107 62.9177C197.107 64.1671 197.903 64.7918 199.5 64.7918C200.364 64.7918 201.273 64.3334 202.218 63.4166C202.887 62.7784 203.421 62.1133 203.81 61.4167C203.783 61.0841 203.516 60.9988 203.014 61.165C201.983 62.9447 200.961 63.83 199.957 63.83C199.455 63.83 199.201 63.6233 199.201 63.2054C199.201 62.7874 199.812 61.21 201.042 58.4641C202.046 56.271 202.829 54.5902 203.417 53.4262Z" fill="white"/>
<path d="M64.4994 34.982C62.2832 38.3796 59.7278 42.9186 56.8287 48.5992C55.3498 51.4799 54.0246 54.3202 52.8487 57.12C51.5642 60.2165 50.922 62.2028 50.922 63.0702C50.922 63.8028 51.2612 64.1713 51.9487 64.1713C53.2331 64.1713 54.9834 63.3039 57.1996 61.5602C59.3072 59.9288 60.7002 58.4638 61.3832 57.156C61.7947 57.0211 62.0525 57.156 62.1611 57.5649C61.3108 59.0345 59.8092 60.6074 57.6474 62.2927C55.3226 64.1128 53.4231 65.0252 51.9441 65.0252C49.4837 65.0252 48.2535 63.7353 48.2535 61.1512C48.2535 59.9019 48.7058 58.311 49.6059 56.383C50.1802 55.1067 51.2341 53.1742 52.7628 50.5946C54.5673 47.6329 56.4533 44.532 58.4253 41.3007L57.973 41.5839C56.0327 44.195 53.0206 48.1318 48.9455 53.4079C47.1952 55.5561 44.8705 58.0278 41.9714 60.8277C39.6196 63.0837 38.1677 64.387 37.6205 64.742C37.3491 64.9308 37.1411 64.9847 37.0054 64.9038C36.8154 64.7959 36.829 64.5533 37.0461 64.1713C37.7833 63.0298 39.0994 60.7468 40.9854 57.3222C43.3644 52.5136 45.5399 48.4194 47.5073 45.0488C48.6832 43.0669 50.0084 40.8648 51.4873 38.4425L51.2024 38.402C48.6606 41.121 44.6534 45.5117 39.1808 51.5698C36.2546 54.9134 32.6861 57.7806 28.4709 60.1715C22.8355 63.4073 17.1866 65.0252 11.524 65.0252C8.13196 65.0252 5.39568 64.3061 3.31972 62.8635C1.10808 61.349 0 59.2547 0 56.5897C0 52.8641 2.22973 49.6733 6.68919 47.0083C10.9542 44.4826 15.8388 43.2152 21.3385 43.2152C23.826 43.2152 26.0964 43.4894 28.1498 44.0287C29.7101 44.4646 30.7775 44.9275 31.3519 45.4129C31.379 45.4938 31.2841 45.5746 31.0625 45.6555C30.8454 45.7364 30.6102 45.7499 30.3659 45.696C28.4528 44.6623 25.608 44.1455 21.8315 44.1455C17.1278 44.1455 12.614 45.5657 8.29026 48.4059C3.96648 51.2462 1.80911 54.2303 1.80911 57.3537C1.80911 61.8658 5.09265 64.1218 11.6552 64.1218C16.2775 64.1218 21.0626 62.859 26.015 60.3288C30.6373 57.9919 34.6174 54.9898 37.9552 51.3181C46.9555 41.4266 52.22 35.9348 53.7532 34.8472C53.9975 34.6854 54.4633 34.5191 55.1463 34.3573C55.6935 34.2225 55.9694 34.3304 55.9694 34.6854C55.9694 34.7663 55.9151 34.8607 55.8066 34.973C55.0422 35.6517 53.6718 37.8673 51.7044 41.6198C50.1169 44.8286 47.8736 49.2014 44.9745 54.7471C43.4684 57.3043 42.2789 59.0974 41.4061 60.1311L41.5282 60.2524C41.9126 59.9243 43.075 58.6345 45.0152 56.3785C47.4756 53.5247 49.7189 50.7788 51.7451 48.1408C54.9744 44.0107 58.3213 39.7413 61.7993 35.3416C61.9892 35.0989 62.4822 34.8247 63.2782 34.5281C63.6898 34.3933 64.029 34.3259 64.3049 34.3259C64.73 34.3304 64.7979 34.5506 64.4994 34.982Z" fill="white"/>
<path d="M72.3328 54.145C72.3328 53.6551 72.1429 53.4125 71.7584 53.4125C70.6368 53.4125 69.1262 54.7158 67.2266 57.3268C65.327 59.9379 64.3727 61.8794 64.3727 63.1557C64.3727 63.6455 64.5898 63.8882 65.0285 63.8882C65.7386 63.8882 67.1769 62.5445 69.3387 59.8525C70.3247 58.6032 71.0664 57.4751 71.573 56.4685C72.0795 55.4618 72.3328 54.6888 72.3328 54.145ZM75.8199 52.8013C75.8199 52.8822 75.7385 53.0439 75.5757 53.2911C75.5214 53.372 74.7977 55.0034 73.4002 58.1852C72.17 60.985 71.5549 62.6838 71.5549 63.2815C71.5549 63.6905 71.7177 63.8927 72.0479 63.8927C72.6766 63.8927 73.7168 63.0523 75.1641 61.367C75.2726 61.3401 75.3902 61.3805 75.5123 61.4884C75.6345 61.5962 75.6842 61.7176 75.6571 61.8569C74.1781 63.9511 72.6494 64.9983 71.0619 64.9983C69.7775 64.9983 69.1352 64.3601 69.1352 63.0838C69.1352 62.6479 69.3523 61.8479 69.791 60.6794C67.5477 63.5062 65.7567 64.9174 64.418 64.9174C63.0249 64.9174 62.3239 64.059 62.3239 62.3467C62.3239 59.9559 63.5134 57.6729 65.8924 55.4977C68.19 53.4035 70.5554 52.3608 72.9886 52.3608C74.2188 52.3608 75.1098 52.4417 75.6571 52.6035C75.7656 52.6485 75.8199 52.7159 75.8199 52.8013Z" fill="white"/>
<path d="M86.7741 54.0639C86.7741 53.601 86.6519 53.3718 86.4032 53.3718C85.9916 53.3718 85.078 54.3111 83.6534 56.1851C82.396 57.8704 81.2337 59.5962 80.1663 61.3623C79.8361 62.1219 79.5105 62.8724 79.1803 63.6049C79.5648 63.9599 79.9989 64.1352 80.4919 64.1352C81.8035 64.1352 83.2146 62.778 84.7162 60.0591C86.0911 57.5828 86.7741 55.5829 86.7741 54.0639ZM89.0716 54.3875C89.0716 56.2615 88.2214 58.4502 86.5298 60.9534C84.6981 63.6454 82.9071 64.9891 81.1568 64.9891C80.2251 64.9891 79.4607 64.7464 78.8592 64.2566C77.7104 66.7283 76.245 69.7214 74.4676 73.2268C74.3862 73.3886 74.1781 73.5594 73.8525 73.7346C73.5223 73.9099 73.2238 73.9998 72.9479 73.9998C72.5092 73.9998 72.2921 73.838 72.2921 73.5099C72.2921 73.4021 72.3193 73.2672 72.3735 73.101L80.2929 54.9987C80.3743 54.8099 80.415 54.6302 80.415 54.4684C80.415 54.0325 80.2522 53.8167 79.9221 53.8167C79.8135 53.8167 79.4833 54.0504 78.9361 54.5088C78.5245 54.6706 78.2667 54.5223 78.1582 54.0594C78.9497 52.9179 79.9628 52.3472 81.193 52.3472C82.1518 52.3472 82.6312 52.9179 82.6312 54.0594C82.6312 55.0391 82.3689 56.0458 81.8533 57.075C83.9066 53.9201 85.6117 52.3472 86.9821 52.3472C88.3751 52.3517 89.0716 53.0303 89.0716 54.3875Z" fill="white"/>
<path d="M102.898 52.882C99.863 58.5896 98.3433 62.095 98.3433 63.4028C98.3433 63.8387 98.479 64.0544 98.7549 64.0544C99.1665 64.0544 99.7454 63.6544 100.496 62.85C101.247 62.05 101.735 61.3894 101.953 60.8726C102.364 60.7108 102.635 60.7647 102.771 61.0344C102.468 61.713 101.907 62.477 101.089 63.3174C100.021 64.4319 98.981 64.9892 97.9725 64.9892C97.5609 64.9892 97.1945 64.8274 96.8644 64.4993C96.4528 64.1443 96.2493 63.6679 96.2493 63.0702C96.2493 62.4725 96.48 61.5467 96.9458 60.2973C94.5397 63.3983 92.7215 64.9442 91.4868 64.9442C90.2566 64.9442 89.6415 64.3465 89.6415 63.1511C89.6415 62.4725 90.2023 60.9355 91.324 58.5446C92.0069 57.0481 92.7034 55.5695 93.418 54.1C93.5266 53.8033 93.418 53.6505 93.0879 53.6505C92.4863 53.6505 92.1833 53.4483 92.1833 53.0393C92.1833 52.6304 92.4275 52.4416 92.9205 52.4686C94.0693 52.5495 95.1774 52.4956 96.2448 52.3068C96.4619 52.2529 96.6292 52.2933 96.7377 52.4281C96.8463 52.536 96.8463 52.7023 96.7377 52.918C95.9191 54.5494 95.096 56.1942 94.2774 57.8525C92.7441 60.9804 91.9798 62.7736 91.9798 63.232C91.9798 63.4747 92.1155 63.6005 92.3914 63.6005C93.0743 63.6005 95.0869 61.3579 98.4202 56.8728C99.0218 55.6504 99.6504 54.3831 100.306 53.0798C100.523 52.6169 100.772 52.3877 101.043 52.3877C101.152 52.3877 101.378 52.3742 101.722 52.3473C102.066 52.3203 102.287 52.3068 102.4 52.3068C102.925 52.3113 103.092 52.5 102.898 52.882Z" fill="white"/>
<path d="M183.182 34.479C182.802 35.5171 182.426 36.5598 182.083 37.6114C182.53 35.8407 183.109 34.6228 183.182 34.479Z" fill="white"/>
</g>
<path d="M8.876 19.8048L9.954 20.8828C9.51533 21.4615 8.94133 21.9235 8.232 22.2688C7.532 22.6048 6.75733 22.7728 5.908 22.7728C5.152 22.7728 4.45667 22.6422 3.822 22.3808C3.19667 22.1195 2.65067 21.7555 2.184 21.2888C1.72667 20.8222 1.36733 20.2715 1.106 19.6368C0.854 18.9928 0.728 18.2975 0.728 17.5508C0.728 16.7948 0.858667 16.0995 1.12 15.4648C1.38133 14.8208 1.74533 14.2655 2.212 13.7988C2.688 13.3322 3.24333 12.9682 3.878 12.7068C4.51267 12.4455 5.20333 12.3148 5.95 12.3148C6.79933 12.3148 7.56933 12.4875 8.26 12.8328C8.95067 13.1688 9.51533 13.6262 9.954 14.2048L8.876 15.2828C8.54933 14.8068 8.13867 14.4335 7.644 14.1628C7.14933 13.8828 6.58467 13.7428 5.95 13.7428C5.278 13.7428 4.676 13.9108 4.144 14.2468C3.612 14.5735 3.192 15.0215 2.884 15.5908C2.576 16.1602 2.422 16.8135 2.422 17.5508C2.422 18.2788 2.576 18.9275 2.884 19.4968C3.192 20.0662 3.612 20.5188 4.144 20.8548C4.676 21.1815 5.278 21.3448 5.95 21.3448C6.58467 21.3448 7.14933 21.2048 7.644 20.9248C8.13867 20.6448 8.54933 20.2715 8.876 19.8048ZM13.2447 22.5488V16.0808H14.8127V22.5488H13.2447ZM10.7947 16.8368V15.5628H17.2487V16.8368H10.7947ZM21.6909 22.7728C20.9536 22.7728 20.2956 22.6142 19.7169 22.2968C19.1476 21.9795 18.6996 21.5408 18.3729 20.9808C18.0463 20.4208 17.8829 19.7768 17.8829 19.0488C17.8829 18.3302 18.0463 17.6908 18.3729 17.1308C18.6996 16.5708 19.1476 16.1322 19.7169 15.8148C20.2956 15.4975 20.9536 15.3388 21.6909 15.3388C22.4376 15.3388 23.0956 15.4975 23.6649 15.8148C24.2436 16.1322 24.6916 16.5708 25.0089 17.1308C25.3356 17.6908 25.4989 18.3302 25.4989 19.0488C25.4989 19.7768 25.3356 20.4208 25.0089 20.9808C24.6916 21.5408 24.2436 21.9795 23.6649 22.2968C23.0956 22.6142 22.4376 22.7728 21.6909 22.7728ZM21.6909 21.4568C22.1296 21.4568 22.5123 21.3542 22.8389 21.1488C23.1656 20.9435 23.4176 20.6635 23.5949 20.3088C23.7816 19.9448 23.8749 19.5248 23.8749 19.0488C23.8749 18.5822 23.7816 18.1715 23.5949 17.8168C23.4176 17.4528 23.1656 17.1682 22.8389 16.9628C22.5123 16.7575 22.1296 16.6548 21.6909 16.6548C21.2616 16.6548 20.8836 16.7575 20.5569 16.9628C20.2303 17.1682 19.9736 17.4528 19.7869 17.8168C19.6096 18.1715 19.5209 18.5822 19.5209 19.0488C19.5209 19.5248 19.6096 19.9448 19.7869 20.3088C19.9736 20.6635 20.2303 20.9435 20.5569 21.1488C20.8836 21.3542 21.2616 21.4568 21.6909 21.4568ZM27.1079 22.5488V15.5628H28.7599L31.3779 20.4908L31.1259 20.4768L33.7019 15.5628H35.4239V22.5488H33.9819V16.0808L34.6119 16.4308L31.7559 21.8488H30.6779L27.8219 16.4308L28.4939 16.1368V22.5488H27.1079ZM43.6032 22.5488H42.1612V21.1628L42.0912 20.8688V18.2508C42.0912 17.7282 41.9232 17.3222 41.5872 17.0328C41.2512 16.7342 40.7939 16.5848 40.2152 16.5848C39.7952 16.5848 39.4032 16.6688 39.0392 16.8368C38.6846 17.0048 38.3766 17.2382 38.1152 17.5368L37.2192 16.5568C37.6019 16.1742 38.0499 15.8755 38.5632 15.6608C39.0766 15.4462 39.6459 15.3388 40.2712 15.3388C40.9339 15.3388 41.5126 15.4555 42.0072 15.6888C42.5112 15.9128 42.9032 16.2395 43.1832 16.6688C43.4632 17.0982 43.6032 17.6115 43.6032 18.2088V22.5488ZM39.6832 22.7728C39.1512 22.7728 38.6799 22.6748 38.2692 22.4788C37.8586 22.2828 37.5412 22.0168 37.3172 21.6808C37.0932 21.3448 36.9812 20.9528 36.9812 20.5048C36.9812 20.0195 37.1212 19.6088 37.4012 19.2728C37.6812 18.9275 38.0686 18.6662 38.5632 18.4888C39.0672 18.3022 39.6459 18.2088 40.2992 18.2088H42.2592V19.2868H40.4392C39.8886 19.2868 39.4406 19.3848 39.0952 19.5808C38.7592 19.7768 38.5912 20.0662 38.5912 20.4488C38.5912 20.7942 38.7219 21.0695 38.9832 21.2748C39.2446 21.4708 39.5852 21.5688 40.0052 21.5688C40.4066 21.5688 40.7752 21.4848 41.1112 21.3168C41.4472 21.1488 41.7132 20.9202 41.9092 20.6308C42.1146 20.3322 42.2312 19.9915 42.2592 19.6088L42.7632 19.8468C42.7632 20.4162 42.6326 20.9248 42.3712 21.3728C42.1099 21.8115 41.7459 22.1568 41.2792 22.4088C40.8126 22.6515 40.2806 22.7728 39.6832 22.7728ZM47.1509 22.5488V16.0808H48.7189V22.5488H47.1509ZM44.7009 16.8368V15.5628H51.1549V16.8368H44.7009ZM55.5972 22.7728C54.8598 22.7728 54.2018 22.6142 53.6232 22.2968C53.0538 21.9795 52.6058 21.5408 52.2792 20.9808C51.9525 20.4208 51.7892 19.7768 51.7892 19.0488C51.7892 18.3302 51.9525 17.6908 52.2792 17.1308C52.6058 16.5708 53.0538 16.1322 53.6232 15.8148C54.2018 15.4975 54.8598 15.3388 55.5972 15.3388C56.3438 15.3388 57.0018 15.4975 57.5712 15.8148C58.1498 16.1322 58.5978 16.5708 58.9152 17.1308C59.2418 17.6908 59.4052 18.3302 59.4052 19.0488C59.4052 19.7768 59.2418 20.4208 58.9152 20.9808C58.5978 21.5408 58.1498 21.9795 57.5712 22.2968C57.0018 22.6142 56.3438 22.7728 55.5972 22.7728ZM55.5972 21.4568C56.0358 21.4568 56.4185 21.3542 56.7452 21.1488C57.0718 20.9435 57.3238 20.6635 57.5012 20.3088C57.6878 19.9448 57.7812 19.5248 57.7812 19.0488C57.7812 18.5822 57.6878 18.1715 57.5012 17.8168C57.3238 17.4528 57.0718 17.1682 56.7452 16.9628C56.4185 16.7575 56.0358 16.6548 55.5972 16.6548C55.1678 16.6548 54.7898 16.7575 54.4632 16.9628C54.1365 17.1682 53.8798 17.4528 53.6932 17.8168C53.5158 18.1715 53.4272 18.5822 53.4272 19.0488C53.4272 19.5248 53.5158 19.9448 53.6932 20.3088C53.8798 20.6635 54.1365 20.9435 54.4632 21.1488C54.7898 21.3542 55.1678 21.4568 55.5972 21.4568ZM60.2582 22.5488V21.2468H60.7622C61.0142 21.2468 61.2009 21.1862 61.3222 21.0648C61.4529 20.9435 61.5275 20.7335 61.5462 20.4348L61.9942 15.5628H67.3142V22.5488H65.7462V15.8148L66.8662 16.8368H62.2882L63.4782 15.8148L63.0022 20.7428C62.9369 21.4148 62.7502 21.8862 62.4422 22.1568C62.1342 22.4182 61.6629 22.5488 61.0282 22.5488H60.2582ZM72.7144 22.7728C71.977 22.7728 71.319 22.6142 70.7404 22.2968C70.171 21.9795 69.723 21.5408 69.3964 20.9808C69.0697 20.4208 68.9064 19.7768 68.9064 19.0488C68.9064 18.3302 69.0697 17.6908 69.3964 17.1308C69.723 16.5708 70.171 16.1322 70.7404 15.8148C71.319 15.4975 71.977 15.3388 72.7144 15.3388C73.461 15.3388 74.119 15.4975 74.6884 15.8148C75.267 16.1322 75.715 16.5708 76.0324 17.1308C76.359 17.6908 76.5224 18.3302 76.5224 19.0488C76.5224 19.7768 76.359 20.4208 76.0324 20.9808C75.715 21.5408 75.267 21.9795 74.6884 22.2968C74.119 22.6142 73.461 22.7728 72.7144 22.7728ZM72.7144 21.4568C73.153 21.4568 73.5357 21.3542 73.8624 21.1488C74.189 20.9435 74.441 20.6635 74.6184 20.3088C74.805 19.9448 74.8984 19.5248 74.8984 19.0488C74.8984 18.5822 74.805 18.1715 74.6184 17.8168C74.441 17.4528 74.189 17.1682 73.8624 16.9628C73.5357 16.7575 73.153 16.6548 72.7144 16.6548C72.285 16.6548 71.907 16.7575 71.5804 16.9628C71.2537 17.1682 70.997 17.4528 70.8104 17.8168C70.633 18.1715 70.5444 18.5822 70.5444 19.0488C70.5444 19.5248 70.633 19.9448 70.8104 20.3088C70.997 20.6635 71.2537 20.9435 71.5804 21.1488C71.907 21.3542 72.285 21.4568 72.7144 21.4568ZM78.1314 22.5488V15.5628H83.1854V16.8368H78.4674L79.6994 15.8708V22.5488H78.1314ZM84.5845 22.5488V15.5628H86.0965V20.5328L85.9845 20.4908L89.8485 15.5628H91.2205V22.5488H89.7085V17.5788L89.8065 17.6208L85.9565 22.5488H84.5845ZM97.6901 22.5488V15.7728L98.6981 16.7668H95.9121C95.5575 16.7668 95.2588 16.8462 95.0161 17.0048C94.7828 17.1635 94.6661 17.4248 94.6661 17.7888C94.6661 18.1155 94.7735 18.3675 94.9881 18.5448C95.2121 18.7222 95.5248 18.8108 95.9261 18.8108H98.3341V19.9588H95.7581C94.9461 19.9588 94.2975 19.7628 93.8121 19.3708C93.3361 18.9695 93.0981 18.4328 93.0981 17.7608C93.0981 17.3408 93.2148 16.9675 93.4481 16.6408C93.6815 16.3048 93.9988 16.0435 94.4001 15.8568C94.8108 15.6608 95.2728 15.5628 95.7861 15.5628H99.1601V22.5488H97.6901ZM92.7621 22.5488L95.1701 19.4408H96.7941L94.5121 22.5488H92.7621Z" fill="white"/>
<defs>
<clipPath id="clip0_424_2084">
<rect width="204" height="74" fill="white"/>
</clipPath>
</defs>
</svg>
