<svg width="204" height="74" viewBox="0 0 204 74" fill="none" xmlns="http://www.w3.org/2000/svg">
<g clip-path="url(#clip0_424_2501)">
<path d="M160.106 47.6825C160.106 52.6215 157.791 56.7291 153.155 60.0009C148.632 63.1917 143.056 64.7916 136.439 64.7916C133.956 64.7916 130.622 64.3826 126.448 63.5602C122.273 62.7423 118.443 62.3333 114.951 62.3333C112.911 62.3333 111.052 62.9984 109.379 64.3332C109.184 64.4141 109.026 64.3916 108.913 64.2523C108.805 64.1175 108.791 63.9377 108.872 63.713C109.402 63.0748 110.351 62.3962 111.717 61.6727C113.671 60.648 115.697 60.1312 117.791 60.1312C120.306 60.1312 124.223 60.666 129.541 61.7311C134.86 62.8007 138.641 63.3355 140.876 63.3355C144.783 63.3355 148.356 62.0187 151.599 59.3807C155.199 56.4101 157.004 52.7204 157.004 48.3072C157.004 45.1748 155.633 42.4963 152.897 40.2762L151.685 39.3639C147.47 36.5326 141.785 35.117 134.639 35.117C128.831 35.117 123.757 36.4472 119.433 39.1167C115.385 41.611 113.359 44.3029 113.359 47.1882C113.359 50.0464 114.992 52.3384 118.262 54.0597C121.446 55.7225 125.548 56.5584 130.577 56.5584C134.792 56.5584 138.397 56.1809 141.382 55.4304L144.403 54.4821C146.95 53.5338 149.754 52.0328 152.816 49.9745C153.263 49.8397 153.485 49.9475 153.485 50.3071C153.485 50.3925 153.458 50.4868 153.404 50.5992C150.749 52.8462 147.289 54.7338 143.015 56.2618L140.419 57.1336C136.647 58.2167 132.879 58.756 129.107 58.756C124.164 58.756 120.143 57.7313 117.045 55.6775C113.834 53.5698 112.228 50.7789 112.228 47.3095C112.228 43.84 114.756 40.6627 119.808 37.7775C124.779 34.9192 130.143 33.4901 135.896 33.4901C137.465 33.4901 138.971 33.553 140.41 33.6789C140.609 33.6968 140.803 33.7148 141.002 33.7328C146.104 34.2406 150.391 35.5484 153.865 37.6562L154.874 38.3213C158.361 40.7571 160.106 43.8805 160.106 47.6825Z" fill="#0095AA"/>
<path d="M165.091 55.0079C166.176 53.453 167.017 52.6755 167.605 52.6755C167.994 52.6755 168.193 52.9361 168.193 53.4664C168.193 54.6843 167.555 55.9876 166.285 57.3763C165.014 58.7605 163.752 59.484 162.494 59.538C163.218 57.9066 164.082 56.3966 165.091 55.0079ZM167.981 61.0031C167.533 61.6143 166.891 62.221 166.054 62.8367C164.991 63.5872 164.046 63.9602 163.205 63.9602C162.173 63.9602 161.653 63.4748 161.653 62.5041C161.653 62.0322 161.825 61.3581 162.155 60.4683C163.553 60.3289 165.091 59.7043 166.764 58.5942C168.863 57.1516 169.907 55.5292 169.907 53.7271C169.907 52.4777 169.166 51.8575 167.687 51.8575C166.04 51.8575 164.276 52.9451 162.409 55.1203C160.536 57.2999 159.6 59.4571 159.6 61.5963C159.6 63.704 160.672 64.7601 162.825 64.7601C164.082 64.7601 165.366 64.2882 166.678 63.3445C167.519 62.7018 168.175 62.0547 168.65 61.3851C168.569 60.9311 168.342 60.8053 167.981 61.0031Z" fill="#0095AA"/>
<path d="M179.373 62.0636C179.147 62.6613 179.039 63.0433 179.039 63.2096C179.039 63.6276 179.288 63.8343 179.794 63.8343C180.803 63.8343 181.82 62.9445 182.856 61.1693C183.078 61.1154 183.231 61.0884 183.317 61.0884C183.539 61.0884 183.652 61.2008 183.652 61.421C183.155 62.3647 182.481 63.1647 181.644 63.8118C180.807 64.4635 180.038 64.7915 179.342 64.7915C178.532 64.7915 177.971 64.6387 177.664 64.3331C177.361 64.032 177.203 63.5602 177.203 62.9175C177.203 62.3108 177.343 61.5423 177.623 60.63C177.818 59.9649 178.044 59.2863 178.293 58.5897H178.211C177.65 58.5897 177.053 58.6032 176.407 58.6346C175.932 58.6346 175.488 58.6481 175.068 58.6751C175.013 58.7874 174.955 58.8998 174.9 59.0076L172.68 64.0051C172.454 64.3107 172.178 64.4994 171.843 64.5668C171.508 64.6343 171.142 64.6702 170.753 64.6702C170.418 64.6702 170.251 64.5039 170.251 64.1714C170.251 64.086 171.02 62.4366 172.553 59.2189C173.896 56.3606 174.566 54.6663 174.566 54.1405C174.566 53.6102 174.371 53.3495 173.978 53.3495C173.896 53.3495 173.349 53.5023 172.345 53.8079C172.119 53.7271 172.01 53.5877 172.01 53.39C172.01 53.1428 172.16 52.9316 172.449 52.7653C172.743 52.599 173.087 52.4507 173.476 52.3294C173.865 52.2035 174.258 52.1137 174.647 52.0552C175.036 52.0013 175.317 51.9699 175.484 51.9699C175.873 51.9699 176.23 52.1047 176.551 52.3653C176.872 52.626 177.035 52.999 177.035 53.4709C177.035 54.2214 176.501 55.7 175.443 57.9245H176.615C177.148 57.9515 177.786 57.9695 178.541 57.9695C178.568 57.9111 178.6 57.8571 178.623 57.7987C179.043 56.801 179.487 55.8303 179.966 54.8865C180.056 54.7113 180.142 54.536 180.228 54.3697C180.459 53.9158 180.681 53.5023 180.893 53.1203C181.02 52.8911 181.142 52.6754 181.264 52.4732C181.572 52.2799 181.92 52.1406 182.309 52.0552C182.698 51.9699 183.046 51.9339 183.354 51.9339C183.661 51.9339 183.815 52.0867 183.815 52.3923C183.788 52.3923 183.652 52.635 183.417 53.1203C183.177 53.6057 182.879 54.2259 182.517 54.9719C182.291 55.4348 182.06 55.9292 181.816 56.446C181.68 56.7336 181.544 57.0347 181.404 57.3403C181.391 57.3673 181.377 57.3987 181.363 57.4257C180.956 58.3155 180.581 59.1604 180.233 59.9649C179.88 60.7693 179.595 61.4659 179.373 62.0636Z" fill="#0095AA"/>
<path d="M184.602 35.099C184.326 35.7821 184.055 36.4697 183.792 37.1573C184.145 36.0877 184.489 35.3372 184.602 35.099Z" fill="#0095AA"/>
<path d="M141.468 35.0675C141.111 34.6046 140.758 34.1462 140.405 33.6788C140.604 33.6968 140.799 33.7148 140.998 33.7328L141.138 34.1327C141.246 34.4383 141.36 34.7529 141.468 35.0675Z" fill="#0095AA"/>
<path d="M203.417 53.4259C203.806 52.6485 204.005 52.3024 204.005 52.3878C204.005 52.0822 203.837 51.9294 203.502 51.9294C202.887 51.9294 202.277 52.1226 201.657 52.5136C200.205 53.372 198.279 55.2865 195.877 58.2571L198.265 53.4709C198.64 52.7204 198.84 52.3429 198.849 52.3429C198.849 52.1227 198.654 52.0103 198.265 52.0103C197.51 52.0103 196.822 52.1991 196.212 52.5721C195.597 52.9451 194.579 53.8574 193.154 55.3C191.73 56.7426 190.613 58.0189 189.803 59.129L189.636 59.084C191.087 56.1988 191.811 54.3113 191.811 53.4214C191.811 52.6574 191.467 52.1946 190.78 52.0328C190.083 51.8665 189.391 51.6822 188.749 51.3631C181.495 47.7903 182.643 40.7211 183.788 37.1663C183.792 37.1618 183.792 37.1573 183.792 37.1573C184.145 36.0832 184.489 35.3327 184.602 35.099C184.611 35.0855 184.611 35.072 184.62 35.0585C184.629 35.0316 184.638 35.0181 184.638 35.0181C186.031 31.5936 187.578 28.2005 188.745 24.5872C189.333 22.7851 189.78 20.9111 190.011 18.9741C190.219 17.0192 190.169 15.0822 189.889 13.1452C189.604 11.2038 189.025 9.27582 188.08 7.49165C187.139 5.71199 185.818 4.09411 184.186 2.84025C183.372 2.21557 182.485 1.67178 181.531 1.24484C181.291 1.13698 181.047 1.03811 180.803 0.948232C180.676 0.903291 180.554 0.85835 180.427 0.813409L180.237 0.754986C180.174 0.732515 180.12 0.714539 180.025 0.692068C179.337 0.516798 178.804 0.516798 178.27 0.512304C177.221 0.521292 176.253 0.638139 175.289 0.772962C174.335 0.907785 173.39 1.07856 172.458 1.26731C171.522 1.45157 170.595 1.65381 169.677 1.86952C169.206 1.98188 168.777 2.07625 168.342 2.16614C167.904 2.25152 167.469 2.34141 167.026 2.40882C165.271 2.69644 163.494 2.81778 161.721 2.7998C159.948 2.76385 158.18 2.58409 156.443 2.24703C156.009 2.16614 155.579 2.06727 155.145 1.96839L154.706 1.85604L153.824 1.63134C152.906 1.39315 151.988 1.16395 151.052 0.952726C150.12 0.741503 149.179 0.534774 148.216 0.363998C147.777 0.287598 147.334 0.215692 146.882 0.157269C146.339 0.0853633 145.778 0.031434 145.181 0.00446938C144.62 -0.00451884 144.064 -0.0224953 143.282 0.157269C143.169 0.184234 143.11 0.20221 143.042 0.220187L142.838 0.27861C142.703 0.319057 142.576 0.363998 142.44 0.404445C142.178 0.494327 141.92 0.593198 141.667 0.696562C140.654 1.11901 139.709 1.65381 138.836 2.29197C137.094 3.5683 135.647 5.23112 134.621 7.09168C134.331 7.62648 134.064 8.16577 133.834 8.72304C133.25 10.1072 132.848 11.5498 132.626 12.9969C132.436 14.2148 132.327 15.4193 132.323 16.6327C132.517 22.2818 137.483 29.7555 138.243 31.1082L140.536 35.1169C142.033 37.7819 143.467 40.4829 144.471 43.3322C144.969 44.7568 145.349 46.2174 145.498 47.7094C145.647 49.1925 145.552 50.7115 145.082 52.1316C144.62 53.5518 143.779 54.8506 142.689 55.9112C141.599 56.9808 140.297 57.8257 138.926 58.5402C140.333 57.9066 141.699 57.1381 142.875 56.1089C144.051 55.0888 145.018 53.79 145.593 52.3114C146.176 50.8373 146.375 49.2284 146.307 47.651C146.244 46.0691 145.932 44.5141 145.502 43.0086C144.634 39.993 143.327 37.1483 141.975 34.3664L139.921 30.2318C139.261 28.8791 137.714 24.4974 137.511 23.7558C137.031 22.0481 136.656 20.3493 136.507 18.6775C136.497 18.5472 136.488 18.4168 136.479 18.291C136.389 16.772 136.457 15.1721 136.706 13.6621C136.981 12.0217 137.461 10.4488 138.207 9.04212C138.962 7.64446 139.966 6.39959 141.21 5.43785C141.83 4.96147 142.495 4.54352 143.196 4.21994C143.372 4.13905 143.549 4.06714 143.725 3.99524C143.811 3.96378 143.901 3.92783 143.987 3.89637L144.218 3.81997C144.335 3.77503 144.724 3.73458 145.1 3.73458C145.878 3.73458 146.76 3.82446 147.637 3.94131C148.515 4.06265 149.41 4.21545 150.301 4.39072C151.192 4.56599 152.092 4.75924 152.983 4.96147L154.39 5.27606C154.58 5.31201 154.765 5.34796 154.955 5.38841C155.249 5.44234 155.543 5.49627 155.837 5.54121C157.194 5.76142 158.564 5.89625 159.935 5.95018C160.527 5.97265 161.115 5.97714 161.707 5.97265C163.666 5.94119 165.624 5.74794 167.546 5.37942C168.03 5.29404 168.501 5.18618 168.98 5.07832C169.455 4.96147 169.934 4.84462 170.369 4.72328C171.264 4.49408 172.155 4.27387 173.046 4.07164C173.937 3.86491 174.833 3.68514 175.715 3.52785C176.596 3.37954 177.487 3.2582 178.306 3.22675C178.704 3.21326 179.116 3.23124 179.337 3.28517C179.355 3.28517 179.41 3.30315 179.455 3.31663L179.6 3.35707C179.695 3.38404 179.79 3.41999 179.885 3.45145C180.074 3.51886 180.269 3.58627 180.459 3.66717C181.219 3.98176 181.947 4.39521 182.625 4.88507C183.978 5.86928 185.104 7.16358 185.941 8.64215C186.773 10.1252 187.329 11.7835 187.637 13.5093C187.935 15.235 188.03 17.0371 187.894 18.7764C187.741 20.5336 187.361 22.2908 186.863 24.039C185.873 27.5354 184.448 30.9689 183.168 34.4743C183.168 34.4743 183.164 34.4788 183.164 34.4878C182.784 35.5259 182.408 36.5685 182.064 37.6202C181.63 39.3234 181.305 41.5345 181.639 43.7996C181.956 45.9253 182.856 48.0914 184.801 49.9205L187.827 52.4867L188.917 53.4125C189.075 53.5338 189.156 53.763 189.156 54.1001C189.156 54.7921 188.473 56.5314 187.103 59.3042C186.791 59.9289 186.51 60.4952 186.262 61.003C186.18 61.1738 186.099 61.3356 186.026 61.4884H186.022C185.208 63.1647 184.796 64.077 184.796 64.2163C184.796 64.5489 184.964 64.7151 185.298 64.7151C185.633 64.7151 186.008 64.6118 186.429 64.405C186.85 64.1983 187.098 64.0096 187.184 63.8433C187.537 63.3489 187.935 62.8051 188.374 62.2164H188.378C188.478 62.0816 188.577 61.9513 188.681 61.8119C189.183 61.1468 189.749 60.4188 190.364 59.6368C192.404 57.0302 193.756 55.5472 194.425 55.1831L194.593 55.3899C194.425 55.8348 193.643 57.4841 192.25 60.3424C190.965 63.0074 190.323 64.4095 190.323 64.5444C190.323 64.7376 190.513 64.805 190.911 64.7511C192.082 64.6118 192.752 64.3646 192.919 64.0006C193.81 62.3917 194.774 60.9041 195.809 59.5469C197.817 56.9673 199.174 55.4842 199.875 55.0977L199.997 55.3045C199.522 56.1089 198.993 57.2055 198.405 58.5897C197.541 60.5851 197.107 62.0277 197.107 62.9175C197.107 64.1669 197.903 64.7915 199.5 64.7915C200.364 64.7915 201.273 64.3331 202.218 63.4163C202.887 62.7782 203.421 62.1131 203.81 61.4165C203.783 61.0839 203.516 60.9985 203.014 61.1648C201.983 62.9445 200.961 63.8298 199.957 63.8298C199.455 63.8298 199.201 63.6231 199.201 63.2051C199.201 62.7872 199.812 61.2097 201.042 58.4638C202.046 56.2707 202.829 54.5899 203.417 53.4259Z" fill="#0095AA"/>
<path d="M64.4994 34.9822C62.2832 38.3797 59.7278 42.9187 56.8287 48.5993C55.3498 51.48 54.0246 54.3203 52.8487 57.1201C51.5642 60.2166 50.922 62.203 50.922 63.0703C50.922 63.8029 51.2612 64.1714 51.9487 64.1714C53.2331 64.1714 54.9834 63.304 57.1996 61.5603C59.3072 59.929 60.7002 58.4639 61.3832 57.1561C61.7947 57.0213 62.0525 57.1561 62.1611 57.5651C61.3108 59.0346 59.8092 60.6076 57.6474 62.2929C55.3226 64.113 53.4231 65.0253 51.9441 65.0253C49.4837 65.0253 48.2535 63.7355 48.2535 61.1514C48.2535 59.902 48.7058 58.3111 49.6059 56.3831C50.1802 55.1068 51.2341 53.1743 52.7628 50.5947C54.5673 47.6331 56.4533 44.5321 58.4253 41.3009L57.973 41.584C56.0327 44.1951 53.0206 48.1319 48.9455 53.408C47.1952 55.5562 44.8705 58.0279 41.9714 60.8278C39.6196 63.0838 38.1677 64.3871 37.6205 64.7421C37.3491 64.9309 37.1411 64.9848 37.0054 64.9039C36.8154 64.7961 36.829 64.5534 37.0461 64.1714C37.7833 63.0299 39.0994 60.7469 40.9854 57.3224C43.3644 52.5137 45.5399 48.4195 47.5073 45.049C48.6832 43.0671 50.0084 40.8649 51.4873 38.4426L51.2024 38.4022C48.6606 41.1211 44.6534 45.5119 39.1808 51.5699C36.2546 54.9135 32.6861 57.7808 28.4709 60.1716C22.8355 63.4074 17.1866 65.0253 11.524 65.0253C8.13196 65.0253 5.39568 64.3062 3.31972 62.8636C1.10808 61.3491 0 59.2548 0 56.5898C0 52.8642 2.22973 49.6734 6.68919 47.0084C10.9542 44.4827 15.8388 43.2154 21.3385 43.2154C23.826 43.2154 26.0964 43.4895 28.1498 44.0288C29.7101 44.4647 30.7775 44.9276 31.3519 45.413C31.379 45.4939 31.2841 45.5748 31.0625 45.6557C30.8454 45.7366 30.6102 45.75 30.3659 45.6961C28.4528 44.6625 25.608 44.1456 21.8315 44.1456C17.1278 44.1456 12.614 45.5658 8.29026 48.4061C3.96648 51.2463 1.80911 54.2304 1.80911 57.3538C1.80911 61.8659 5.09265 64.122 11.6552 64.122C16.2775 64.122 21.0626 62.8591 26.015 60.3289C30.6373 57.992 34.6174 54.9899 37.9552 51.3182C46.9555 41.4267 52.22 35.9349 53.7532 34.8473C53.9975 34.6855 54.4633 34.5193 55.1463 34.3575C55.6935 34.2226 55.9694 34.3305 55.9694 34.6855C55.9694 34.7664 55.9151 34.8608 55.8066 34.9732C55.0422 35.6518 53.6718 37.8674 51.7044 41.62C50.1169 44.8287 47.8736 49.2015 44.9745 54.7472C43.4684 57.3044 42.2789 59.0975 41.4061 60.1312L41.5282 60.2525C41.9126 59.9245 43.075 58.6346 45.0152 56.3786C47.4756 53.5248 49.7189 50.7789 51.7451 48.1409C54.9744 44.0108 58.3213 39.7414 61.7993 35.3417C61.9892 35.099 62.4822 34.8249 63.2782 34.5283C63.6898 34.3934 64.029 34.326 64.3049 34.326C64.73 34.3305 64.7979 34.5507 64.4994 34.9822Z" fill="#0095AA"/>
<path d="M72.3328 54.145C72.3328 53.6551 72.1429 53.4125 71.7584 53.4125C70.6368 53.4125 69.1262 54.7158 67.2266 57.3268C65.327 59.9379 64.3727 61.8794 64.3727 63.1557C64.3727 63.6455 64.5898 63.8882 65.0285 63.8882C65.7386 63.8882 67.1769 62.5445 69.3387 59.8525C70.3247 58.6032 71.0664 57.4751 71.573 56.4685C72.0795 55.4618 72.3328 54.6888 72.3328 54.145ZM75.8199 52.8013C75.8199 52.8822 75.7385 53.0439 75.5757 53.2911C75.5214 53.372 74.7977 55.0034 73.4002 58.1852C72.17 60.985 71.5549 62.6838 71.5549 63.2815C71.5549 63.6905 71.7177 63.8927 72.0479 63.8927C72.6766 63.8927 73.7168 63.0523 75.1641 61.367C75.2726 61.3401 75.3902 61.3805 75.5123 61.4884C75.6345 61.5962 75.6842 61.7176 75.6571 61.8569C74.1781 63.9511 72.6494 64.9983 71.0619 64.9983C69.7775 64.9983 69.1352 64.3601 69.1352 63.0838C69.1352 62.6479 69.3523 61.8479 69.791 60.6794C67.5477 63.5062 65.7567 64.9174 64.418 64.9174C63.0249 64.9174 62.3239 64.059 62.3239 62.3467C62.3239 59.9559 63.5134 57.6729 65.8924 55.4977C68.19 53.4035 70.5554 52.3608 72.9886 52.3608C74.2188 52.3608 75.1098 52.4417 75.6571 52.6035C75.7656 52.6485 75.8199 52.7159 75.8199 52.8013Z" fill="#0095AA"/>
<path d="M86.7741 54.0642C86.7741 53.6013 86.6519 53.3721 86.4032 53.3721C85.9916 53.3721 85.078 54.3113 83.6534 56.1854C82.396 57.8707 81.2337 59.5964 80.1663 61.3626C79.8361 62.1221 79.5105 62.8726 79.1803 63.6052C79.5648 63.9602 79.9989 64.1355 80.4919 64.1355C81.8035 64.1355 83.2146 62.7782 84.7162 60.0593C86.0911 57.583 86.7741 55.5832 86.7741 54.0642ZM89.0716 54.3877C89.0716 56.2618 88.2214 58.4504 86.5298 60.9536C84.6981 63.6456 82.9071 64.9893 81.1568 64.9893C80.2251 64.9893 79.4607 64.7467 78.8592 64.2568C77.7104 66.7286 76.245 69.7216 74.4676 73.227C74.3862 73.3888 74.1781 73.5596 73.8525 73.7349C73.5223 73.9101 73.2238 74 72.9479 74C72.5092 74 72.2921 73.8382 72.2921 73.5102C72.2921 73.4023 72.3193 73.2675 72.3735 73.1012L80.2929 54.9989C80.3743 54.8102 80.415 54.6304 80.415 54.4686C80.415 54.0327 80.2522 53.817 79.9221 53.817C79.8135 53.817 79.4833 54.0507 78.9361 54.5091C78.5245 54.6709 78.2667 54.5226 78.1582 54.0597C78.9497 52.9182 79.9628 52.3474 81.193 52.3474C82.1518 52.3474 82.6312 52.9182 82.6312 54.0597C82.6312 55.0394 82.3689 56.0461 81.8533 57.0752C83.9066 53.9203 85.6117 52.3474 86.9821 52.3474C88.3751 52.3519 89.0716 53.0305 89.0716 54.3877Z" fill="#0095AA"/>
<path d="M102.898 52.8822C99.863 58.5897 98.3433 62.0951 98.3433 63.4029C98.3433 63.8388 98.479 64.0545 98.7549 64.0545C99.1665 64.0545 99.7454 63.6546 100.496 62.8501C101.247 62.0502 101.735 61.3895 101.953 60.8727C102.364 60.7109 102.635 60.7648 102.771 61.0345C102.468 61.7131 101.907 62.4771 101.089 63.3175C100.021 64.432 98.981 64.9893 97.9725 64.9893C97.5609 64.9893 97.1945 64.8275 96.8644 64.4994C96.4528 64.1444 96.2493 63.668 96.2493 63.0703C96.2493 62.4726 96.48 61.5468 96.9458 60.2975C94.5397 63.3984 92.7215 64.9444 91.4868 64.9444C90.2566 64.9444 89.6415 64.3466 89.6415 63.1512C89.6415 62.4726 90.2023 60.9356 91.324 58.5448C92.0069 57.0482 92.7034 55.5696 93.418 54.1001C93.5266 53.8035 93.418 53.6507 93.0879 53.6507C92.4863 53.6507 92.1833 53.4484 92.1833 53.0395C92.1833 52.6305 92.4275 52.4417 92.9205 52.4687C94.0693 52.5496 95.1774 52.4957 96.2448 52.3069C96.4619 52.253 96.6292 52.2934 96.7377 52.4283C96.8463 52.5361 96.8463 52.7024 96.7377 52.9181C95.9191 54.5495 95.096 56.1943 94.2774 57.8527C92.7441 60.9806 91.9798 62.7737 91.9798 63.2321C91.9798 63.4748 92.1155 63.6006 92.3914 63.6006C93.0743 63.6006 95.0869 61.3581 98.4202 56.8729C99.0218 55.6505 99.6504 54.3832 100.306 53.0799C100.523 52.617 100.772 52.3878 101.043 52.3878C101.152 52.3878 101.378 52.3743 101.722 52.3474C102.066 52.3204 102.287 52.3069 102.4 52.3069C102.925 52.3114 103.092 52.5002 102.898 52.8822Z" fill="#0095AA"/>
<path d="M183.182 34.4788C182.802 35.517 182.426 36.5596 182.083 37.6112C182.53 35.8405 183.109 34.6226 183.182 34.4788Z" fill="#0095AA"/>
</g>
<path d="M8.876 19.8048L9.954 20.8828C9.51533 21.4615 8.94133 21.9235 8.232 22.2688C7.532 22.6048 6.75733 22.7728 5.908 22.7728C5.152 22.7728 4.45667 22.6422 3.822 22.3808C3.19667 22.1195 2.65067 21.7555 2.184 21.2888C1.72667 20.8222 1.36733 20.2715 1.106 19.6368C0.854 18.9928 0.728 18.2975 0.728 17.5508C0.728 16.7948 0.858667 16.0995 1.12 15.4648C1.38133 14.8208 1.74533 14.2655 2.212 13.7988C2.688 13.3322 3.24333 12.9682 3.878 12.7068C4.51267 12.4455 5.20333 12.3148 5.95 12.3148C6.79933 12.3148 7.56933 12.4875 8.26 12.8328C8.95067 13.1688 9.51533 13.6262 9.954 14.2048L8.876 15.2828C8.54933 14.8068 8.13867 14.4335 7.644 14.1628C7.14933 13.8828 6.58467 13.7428 5.95 13.7428C5.278 13.7428 4.676 13.9108 4.144 14.2468C3.612 14.5735 3.192 15.0215 2.884 15.5908C2.576 16.1602 2.422 16.8135 2.422 17.5508C2.422 18.2788 2.576 18.9275 2.884 19.4968C3.192 20.0662 3.612 20.5188 4.144 20.8548C4.676 21.1815 5.278 21.3448 5.95 21.3448C6.58467 21.3448 7.14933 21.2048 7.644 20.9248C8.13867 20.6448 8.54933 20.2715 8.876 19.8048ZM13.2447 22.5488V16.0808H14.8127V22.5488H13.2447ZM10.7947 16.8368V15.5628H17.2487V16.8368H10.7947ZM21.6909 22.7728C20.9536 22.7728 20.2956 22.6142 19.7169 22.2968C19.1476 21.9795 18.6996 21.5408 18.3729 20.9808C18.0463 20.4208 17.8829 19.7768 17.8829 19.0488C17.8829 18.3302 18.0463 17.6908 18.3729 17.1308C18.6996 16.5708 19.1476 16.1322 19.7169 15.8148C20.2956 15.4975 20.9536 15.3388 21.6909 15.3388C22.4376 15.3388 23.0956 15.4975 23.6649 15.8148C24.2436 16.1322 24.6916 16.5708 25.0089 17.1308C25.3356 17.6908 25.4989 18.3302 25.4989 19.0488C25.4989 19.7768 25.3356 20.4208 25.0089 20.9808C24.6916 21.5408 24.2436 21.9795 23.6649 22.2968C23.0956 22.6142 22.4376 22.7728 21.6909 22.7728ZM21.6909 21.4568C22.1296 21.4568 22.5123 21.3542 22.8389 21.1488C23.1656 20.9435 23.4176 20.6635 23.5949 20.3088C23.7816 19.9448 23.8749 19.5248 23.8749 19.0488C23.8749 18.5822 23.7816 18.1715 23.5949 17.8168C23.4176 17.4528 23.1656 17.1682 22.8389 16.9628C22.5123 16.7575 22.1296 16.6548 21.6909 16.6548C21.2616 16.6548 20.8836 16.7575 20.5569 16.9628C20.2303 17.1682 19.9736 17.4528 19.7869 17.8168C19.6096 18.1715 19.5209 18.5822 19.5209 19.0488C19.5209 19.5248 19.6096 19.9448 19.7869 20.3088C19.9736 20.6635 20.2303 20.9435 20.5569 21.1488C20.8836 21.3542 21.2616 21.4568 21.6909 21.4568ZM27.1079 22.5488V15.5628H28.7599L31.3779 20.4908L31.1259 20.4768L33.7019 15.5628H35.4239V22.5488H33.9819V16.0808L34.6119 16.4308L31.7559 21.8488H30.6779L27.8219 16.4308L28.4939 16.1368V22.5488H27.1079ZM43.6032 22.5488H42.1612V21.1628L42.0912 20.8688V18.2508C42.0912 17.7282 41.9232 17.3222 41.5872 17.0328C41.2512 16.7342 40.7939 16.5848 40.2152 16.5848C39.7952 16.5848 39.4032 16.6688 39.0392 16.8368C38.6846 17.0048 38.3766 17.2382 38.1152 17.5368L37.2192 16.5568C37.6019 16.1742 38.0499 15.8755 38.5632 15.6608C39.0766 15.4462 39.6459 15.3388 40.2712 15.3388C40.9339 15.3388 41.5126 15.4555 42.0072 15.6888C42.5112 15.9128 42.9032 16.2395 43.1832 16.6688C43.4632 17.0982 43.6032 17.6115 43.6032 18.2088V22.5488ZM39.6832 22.7728C39.1512 22.7728 38.6799 22.6748 38.2692 22.4788C37.8586 22.2828 37.5412 22.0168 37.3172 21.6808C37.0932 21.3448 36.9812 20.9528 36.9812 20.5048C36.9812 20.0195 37.1212 19.6088 37.4012 19.2728C37.6812 18.9275 38.0686 18.6662 38.5632 18.4888C39.0672 18.3022 39.6459 18.2088 40.2992 18.2088H42.2592V19.2868H40.4392C39.8886 19.2868 39.4406 19.3848 39.0952 19.5808C38.7592 19.7768 38.5912 20.0662 38.5912 20.4488C38.5912 20.7942 38.7219 21.0695 38.9832 21.2748C39.2446 21.4708 39.5852 21.5688 40.0052 21.5688C40.4066 21.5688 40.7752 21.4848 41.1112 21.3168C41.4472 21.1488 41.7132 20.9202 41.9092 20.6308C42.1146 20.3322 42.2312 19.9915 42.2592 19.6088L42.7632 19.8468C42.7632 20.4162 42.6326 20.9248 42.3712 21.3728C42.1099 21.8115 41.7459 22.1568 41.2792 22.4088C40.8126 22.6515 40.2806 22.7728 39.6832 22.7728ZM47.1509 22.5488V16.0808H48.7189V22.5488H47.1509ZM44.7009 16.8368V15.5628H51.1549V16.8368H44.7009ZM55.5972 22.7728C54.8598 22.7728 54.2018 22.6142 53.6232 22.2968C53.0538 21.9795 52.6058 21.5408 52.2792 20.9808C51.9525 20.4208 51.7892 19.7768 51.7892 19.0488C51.7892 18.3302 51.9525 17.6908 52.2792 17.1308C52.6058 16.5708 53.0538 16.1322 53.6232 15.8148C54.2018 15.4975 54.8598 15.3388 55.5972 15.3388C56.3438 15.3388 57.0018 15.4975 57.5712 15.8148C58.1498 16.1322 58.5978 16.5708 58.9152 17.1308C59.2418 17.6908 59.4052 18.3302 59.4052 19.0488C59.4052 19.7768 59.2418 20.4208 58.9152 20.9808C58.5978 21.5408 58.1498 21.9795 57.5712 22.2968C57.0018 22.6142 56.3438 22.7728 55.5972 22.7728ZM55.5972 21.4568C56.0358 21.4568 56.4185 21.3542 56.7452 21.1488C57.0718 20.9435 57.3238 20.6635 57.5012 20.3088C57.6878 19.9448 57.7812 19.5248 57.7812 19.0488C57.7812 18.5822 57.6878 18.1715 57.5012 17.8168C57.3238 17.4528 57.0718 17.1682 56.7452 16.9628C56.4185 16.7575 56.0358 16.6548 55.5972 16.6548C55.1678 16.6548 54.7898 16.7575 54.4632 16.9628C54.1365 17.1682 53.8798 17.4528 53.6932 17.8168C53.5158 18.1715 53.4272 18.5822 53.4272 19.0488C53.4272 19.5248 53.5158 19.9448 53.6932 20.3088C53.8798 20.6635 54.1365 20.9435 54.4632 21.1488C54.7898 21.3542 55.1678 21.4568 55.5972 21.4568ZM60.2582 22.5488V21.2468H60.7622C61.0142 21.2468 61.2009 21.1862 61.3222 21.0648C61.4529 20.9435 61.5275 20.7335 61.5462 20.4348L61.9942 15.5628H67.3142V22.5488H65.7462V15.8148L66.8662 16.8368H62.2882L63.4782 15.8148L63.0022 20.7428C62.9369 21.4148 62.7502 21.8862 62.4422 22.1568C62.1342 22.4182 61.6629 22.5488 61.0282 22.5488H60.2582ZM72.7144 22.7728C71.977 22.7728 71.319 22.6142 70.7404 22.2968C70.171 21.9795 69.723 21.5408 69.3964 20.9808C69.0697 20.4208 68.9064 19.7768 68.9064 19.0488C68.9064 18.3302 69.0697 17.6908 69.3964 17.1308C69.723 16.5708 70.171 16.1322 70.7404 15.8148C71.319 15.4975 71.977 15.3388 72.7144 15.3388C73.461 15.3388 74.119 15.4975 74.6884 15.8148C75.267 16.1322 75.715 16.5708 76.0324 17.1308C76.359 17.6908 76.5224 18.3302 76.5224 19.0488C76.5224 19.7768 76.359 20.4208 76.0324 20.9808C75.715 21.5408 75.267 21.9795 74.6884 22.2968C74.119 22.6142 73.461 22.7728 72.7144 22.7728ZM72.7144 21.4568C73.153 21.4568 73.5357 21.3542 73.8624 21.1488C74.189 20.9435 74.441 20.6635 74.6184 20.3088C74.805 19.9448 74.8984 19.5248 74.8984 19.0488C74.8984 18.5822 74.805 18.1715 74.6184 17.8168C74.441 17.4528 74.189 17.1682 73.8624 16.9628C73.5357 16.7575 73.153 16.6548 72.7144 16.6548C72.285 16.6548 71.907 16.7575 71.5804 16.9628C71.2537 17.1682 70.997 17.4528 70.8104 17.8168C70.633 18.1715 70.5444 18.5822 70.5444 19.0488C70.5444 19.5248 70.633 19.9448 70.8104 20.3088C70.997 20.6635 71.2537 20.9435 71.5804 21.1488C71.907 21.3542 72.285 21.4568 72.7144 21.4568ZM78.1314 22.5488V15.5628H83.1854V16.8368H78.4674L79.6994 15.8708V22.5488H78.1314ZM84.5845 22.5488V15.5628H86.0965V20.5328L85.9845 20.4908L89.8485 15.5628H91.2205V22.5488H89.7085V17.5788L89.8065 17.6208L85.9565 22.5488H84.5845ZM97.6901 22.5488V15.7728L98.6981 16.7668H95.9121C95.5575 16.7668 95.2588 16.8462 95.0161 17.0048C94.7828 17.1635 94.6661 17.4248 94.6661 17.7888C94.6661 18.1155 94.7735 18.3675 94.9881 18.5448C95.2121 18.7222 95.5248 18.8108 95.9261 18.8108H98.3341V19.9588H95.7581C94.9461 19.9588 94.2975 19.7628 93.8121 19.3708C93.3361 18.9695 93.0981 18.4328 93.0981 17.7608C93.0981 17.3408 93.2148 16.9675 93.4481 16.6408C93.6815 16.3048 93.9988 16.0435 94.4001 15.8568C94.8108 15.6608 95.2728 15.5628 95.7861 15.5628H99.1601V22.5488H97.6901ZM92.7621 22.5488L95.1701 19.4408H96.7941L94.5121 22.5488H92.7621Z" fill="#0095AA"/>
<defs>
<clipPath id="clip0_424_2501">
<rect width="204" height="74" fill="white"/>
</clipPath>
</defs>
</svg>
