<svg width="44" height="30" viewBox="0 0 44 30" fill="none" xmlns="http://www.w3.org/2000/svg">
<path d="M43.0833 10.5916C43.0833 7.90822 42.5083 5.03322 41.3583 2.73322C40.5917 1.77489 39.4417 1.00822 38.1 0.816552C32.7333 0.241552 27.3667 0.0498862 22 0.241553C16.6333 0.241553 11.2667 0.433219 6.09167 0.816552C4.94167 1.00822 3.98333 1.39155 3.21667 2.15822C1.49167 3.69155 1.3 6.56655 1.10833 8.67488C0.916668 12.8916 0.916668 16.9166 1.10833 21.1332C1.10833 22.4749 1.3 23.6249 1.68333 24.9666C1.875 25.9249 2.45 26.8832 3.025 27.6499C3.79167 28.4166 4.75 28.9916 5.9 29.1832C10.1167 29.7582 14.1417 29.9499 18.3583 29.7582C25.0667 29.7582 31.0083 29.7582 37.9083 29.1832C39.0583 28.9916 40.0167 28.4166 40.7833 27.6499C41.3583 27.0749 41.7417 26.4999 41.9333 25.7332C42.7 23.6249 42.8917 21.5166 42.8917 19.2166C43.0833 18.2582 43.0833 11.7416 43.0833 10.5916ZM17.5917 20.5582V8.67488L28.9 14.6166C25.8333 16.3416 21.6167 18.2582 17.5917 20.5582Z" fill="#FF0B1D"/>
<path d="M43.0833 10.5916C43.0833 7.90822 42.5083 5.03322 41.3583 2.73322C40.5917 1.77489 39.4417 1.00822 38.1 0.816552C32.7333 0.241552 27.3667 0.0498862 22 0.241553C16.6333 0.241553 11.2667 0.433219 6.09167 0.816552C4.94167 1.00822 3.98333 1.39155 3.21667 2.15822C1.49167 3.69155 1.3 6.56655 1.10833 8.67488C0.916668 12.8916 0.916668 16.9166 1.10833 21.1332C1.10833 22.4749 1.3 23.6249 1.68333 24.9666C1.875 25.9249 2.45 26.8832 3.025 27.6499C3.79167 28.4166 4.75 28.9916 5.9 29.1832C10.1167 29.7582 14.1417 29.9499 18.3583 29.7582C25.0667 29.7582 31.0083 29.7582 37.9083 29.1832C39.0583 28.9916 40.0167 28.4166 40.7833 27.6499C41.3583 27.0749 41.7417 26.4999 41.9333 25.7332C42.7 23.6249 42.8917 21.5166 42.8917 19.2166C43.0833 18.2582 43.0833 11.7416 43.0833 10.5916ZM17.5917 20.5582V8.67488L28.9 14.6166C25.8333 16.3416 21.6167 18.2582 17.5917 20.5582Z" fill="url(#paint0_linear_73_576)"/>
<defs>
<linearGradient id="paint0_linear_73_576" x1="22.024" y1="0.169678" x2="22.024" y2="29.8301" gradientUnits="userSpaceOnUse">
<stop stop-color="#16BCF9"/>
<stop offset="1" stop-color="#0095AA"/>
</linearGradient>
</defs>
</svg>
