<svg width="36" height="36" viewBox="0 0 36 36" fill="none" xmlns="http://www.w3.org/2000/svg">
<g clip-path="url(#clip0_186_2053)">
<path d="M17.4727 0.140625C17.3602 0.210938 17.0578 0.43594 16.8047 0.632812C14.9906 2.06016 10.1039 3.48047 4.15547 4.32422C3.45234 4.42266 2.77734 4.54922 2.66484 4.6125C2.54531 4.66875 2.39062 4.81641 2.32031 4.94297C2.18672 5.16094 2.17969 5.35078 2.17969 12.1078C2.17969 19.6313 2.18672 19.7578 2.57344 21.5156C4.00078 27.9422 8.93672 33.2367 15.5039 35.3883C16.6148 35.7539 17.6273 36 18.0352 36C18.4781 36 19.7648 35.6695 20.8898 35.2758C23.8781 34.2141 26.332 32.6813 28.4766 30.5227C30.0234 28.9688 31.0711 27.5133 32.0344 25.5586C32.9836 23.625 33.6164 21.4453 33.8133 19.3781C33.8625 18.893 33.8906 16.1016 33.8906 11.918V5.22422L33.7359 4.99219C33.4406 4.57031 33.3 4.51406 32.1328 4.35938C28.3711 3.86016 24.4828 2.98125 22.0078 2.06016C21.0164 1.69453 19.8562 1.10391 19.3148 0.682034C18.4008 -0.014061 18.4219 0 18.0422 0C17.8031 0 17.6133 0.049221 17.4727 0.140625ZM19.4766 3.33984C21.8672 4.54219 25.9031 5.63906 30.3961 6.30703L31.718 6.50391L31.6898 12.9375C31.6687 18.5625 31.6547 19.4555 31.5492 20.0391C30.9375 23.4984 29.5102 26.3391 27.1406 28.7859C24.8836 31.1133 22.0781 32.7516 18.8648 33.6094L18.0422 33.8344L17.2969 33.6445C15.5953 33.2016 13.5633 32.3297 12.0938 31.3945C8.14219 28.8844 5.41406 24.9328 4.60547 20.5523C4.33828 19.125 4.28906 17.7891 4.28906 11.8266V6.46875H4.44375C4.73203 6.46875 6.91875 6.11016 8.34609 5.82891C12.6 4.99219 16.0805 3.825 17.7469 2.67188L18.0211 2.48203L18.4148 2.74219C18.6328 2.88984 19.1109 3.15703 19.4766 3.33984Z" fill="#005C7E"/>
<path d="M13.6756 8.53594C11.8123 8.90156 10.3006 10.2797 9.65371 12.1992C9.48496 12.7055 9.46387 12.8602 9.46387 13.7813C9.4709 14.8852 9.46387 14.857 10.0475 16.5234C10.4482 17.6555 10.5467 18.3375 10.5467 19.8563C10.5467 20.6438 10.5889 21.375 10.6521 21.7758C11.0107 23.9836 12.2553 25.9945 13.9779 27.1477L14.4982 27.4922H15.3561C16.1365 27.4922 16.242 27.4781 16.46 27.3305C16.9381 27.0141 16.9451 26.9578 16.9451 24.3281C16.9451 22.2258 16.9592 21.9445 17.0717 21.7336C17.2404 21.3961 17.5076 21.2203 17.9084 21.1852C18.3232 21.15 18.6678 21.3117 18.8928 21.6492C19.0545 21.8883 19.0545 21.9094 19.0545 24.2859C19.0545 26.6344 19.0615 26.6906 19.2162 26.9578C19.4693 27.4078 19.7154 27.4922 20.749 27.4922H21.642L22.085 27.1969C22.7037 26.782 23.5404 25.9172 23.9975 25.2211C25.0662 23.6109 25.4529 22.2469 25.4529 20.0813C25.4529 18.2461 25.5725 17.6273 26.3178 15.5742C26.7467 14.4 26.7326 13.1063 26.2756 11.8969C25.9803 11.0953 25.6217 10.5609 24.9467 9.89297C24.4826 9.44297 24.2646 9.28828 23.674 9.00703C22.767 8.5711 22.3662 8.47266 21.4451 8.47969C20.5803 8.47969 20.1725 8.58516 19.16 9.05625C18.1896 9.50625 17.8803 9.50625 16.91 9.05625C16.5232 8.87344 16.017 8.67657 15.785 8.61328C15.1943 8.4586 14.2662 8.42344 13.6756 8.53594ZM15.1381 10.7227C15.3561 10.7789 15.7568 10.9336 16.017 11.0672C17.3951 11.7633 18.6045 11.7492 20.1303 11.032C20.8686 10.6805 20.9389 10.6594 21.4732 10.6594C22.1693 10.6664 22.6475 10.8352 23.21 11.2781C24.2928 12.1289 24.7076 13.6055 24.2295 14.9063C23.449 17.0227 23.3506 17.55 23.2732 19.8281C23.224 21.3961 23.2029 21.607 23.0342 22.1695C22.7248 23.1961 22.1764 24.1523 21.5225 24.7852L21.2342 25.0594V23.407C21.2342 21.607 21.1779 21.1922 20.8334 20.6086C20.2287 19.575 19.1951 18.9844 17.9998 18.9844C16.4459 18.9844 15.1662 20.0109 14.8428 21.5016C14.8006 21.7125 14.7654 22.5492 14.7654 23.4352L14.7584 24.9961L14.3154 24.525C13.8443 24.0398 13.4154 23.3578 13.1623 22.7109C12.8248 21.8531 12.7826 21.5438 12.7264 19.6875C12.6561 17.4727 12.5506 16.875 11.9389 15.2578C11.4889 14.0695 11.5029 13.2961 11.9951 12.3117C12.3889 11.5242 13.1271 10.9195 13.9568 10.7156C14.435 10.5961 14.667 10.5961 15.1381 10.7227Z" fill="#005C7E"/>
</g>
<defs>
<clipPath id="clip0_186_2053">
<rect width="36" height="36" fill="white"/>
</clipPath>
</defs>
</svg>
