<svg width="36" height="36" viewBox="0 0 36 36" fill="none" xmlns="http://www.w3.org/2000/svg">
<g clip-path="url(#clip0_186_2060)">
<path d="M7.70665 0.112495C6.98946 0.24609 5.8504 0.625778 5.18946 0.956245C2.68634 2.20781 0.963682 4.37343 0.197276 7.24219L0.0355573 7.83984L0.0214948 17.7117C-0.00663019 28.582 -0.0206927 28.0969 0.429307 29.5102C1.33634 32.3437 3.55821 34.5867 6.39884 35.5359C7.86134 36.0281 7.32696 36.007 18.2887 35.9789L28.1606 35.9648L28.7582 35.8031C30.6356 35.3039 31.9785 34.5375 33.2582 33.2578C34.6645 31.8586 35.5574 30.143 35.8949 28.2234C36.0566 27.3094 36.0566 8.69062 35.8949 7.77656C35.3957 4.91484 33.5395 2.3625 31.0082 1.06171C30.1715 0.632809 29.7566 0.464058 28.8637 0.224998L28.1606 0.0351524L18.2113 0.0210915C9.79493 0.014061 8.17774 0.0281219 7.70665 0.112495ZM16.9457 3.88125C16.9457 5.54062 16.9527 5.67422 17.0863 5.89219C17.241 6.13828 17.7051 6.39844 18.0004 6.39844C18.2957 6.39844 18.7598 6.13828 18.9145 5.89219C19.0481 5.67422 19.0551 5.54062 19.0551 3.88125V2.10937H22.6973C24.6942 2.10937 26.684 2.14453 27.1059 2.17968C28.1606 2.26406 28.8637 2.46093 29.7777 2.91093C31.2613 3.64922 32.3652 4.74609 33.0895 6.22265C33.8207 7.72031 33.891 8.29687 33.891 13.3383V16.9453H32.1191C30.0871 16.9453 29.9957 16.9664 29.7426 17.5289C29.5668 17.9016 29.5668 18.0984 29.7426 18.4711C29.9957 19.0336 30.0871 19.0547 32.1191 19.0547H33.891V22.6547C33.891 27.7031 33.8207 28.2797 33.0895 29.7773C32.3582 31.2539 31.2543 32.3578 29.7777 33.0891C28.2801 33.8273 27.7035 33.8906 22.6973 33.8906H19.0551V32.1117C19.0551 30.0867 19.034 29.9953 18.4715 29.7422C18.0988 29.5664 17.902 29.5664 17.5293 29.7422C16.9668 29.9953 16.9457 30.0867 16.9457 32.1117V33.8906H13.3106C8.29728 33.8906 7.72071 33.8273 6.22306 33.0891C4.74649 32.3578 3.64259 31.2539 2.91134 29.7773C2.18009 28.2797 2.10978 27.7031 2.10978 22.6547V19.0547H3.88868C5.91368 19.0547 6.00509 19.0336 6.25821 18.4711C6.43399 18.0984 6.43399 17.9016 6.25821 17.5289C6.00509 16.9664 5.91368 16.9453 3.88868 16.9453H2.10978V13.3383C2.10978 8.40937 2.18009 7.75547 2.84103 6.36328C3.6004 4.75312 4.71134 3.62812 6.3004 2.86875C7.13712 2.46796 7.88243 2.26406 8.75431 2.18671C9.10587 2.15156 11.0887 2.12344 13.1699 2.1164L16.9457 2.10937V3.88125Z" fill="#005C7E"/>
<path d="M25.9813 8.55001C25.8688 8.61329 24.329 10.1039 22.5641 11.8617L19.3579 15.0609L19.0977 14.9766C16.3204 14.0625 13.8805 16.8328 15.1532 19.4484C15.8423 20.8688 17.5368 21.5367 19.1118 21.0164L19.3509 20.9391L21.4743 23.0484C23.3095 24.8766 23.6329 25.1719 23.893 25.2352C24.7298 25.4602 25.461 24.7289 25.236 23.8852C25.1727 23.632 24.8774 23.3086 23.0493 21.4734L20.947 19.357L21.0665 18.9422C21.2212 18.4078 21.2212 17.5922 21.0665 17.0578L20.9399 16.643L24.1462 13.4367C26.347 11.2359 27.3805 10.1461 27.4579 9.97033C27.5985 9.61173 27.5915 9.33048 27.4157 8.99298C27.1766 8.51486 26.4665 8.29689 25.9813 8.55001ZM18.4227 17.1C19.2173 17.5078 19.2032 18.5063 18.4016 18.907C18.0923 19.0617 18.036 19.0688 17.7759 18.9844C17.4032 18.8789 17.122 18.5977 17.0165 18.225C16.9321 17.9649 16.9391 17.9086 17.0938 17.5992C17.2204 17.3461 17.3399 17.2266 17.579 17.1C17.7477 17.0156 17.9376 16.9453 18.0009 16.9453C18.0641 16.9453 18.254 17.0156 18.4227 17.1Z" fill="#005C7E"/>
</g>
<defs>
<clipPath id="clip0_186_2060">
<rect width="36" height="36" fill="white"/>
</clipPath>
</defs>
</svg>
