<svg width="36" height="36" viewBox="0 0 36 36" fill="none" xmlns="http://www.w3.org/2000/svg">
<g clip-path="url(#clip0_186_2064)">
<path d="M28.3359 0.182804C28.0477 0.428898 27.9141 0.703117 27.9141 1.05468C27.9141 1.43437 27.9914 1.56796 28.4977 2.09531L28.9336 2.53124L27.7172 3.74765L26.5078 4.95702L25.8609 4.31015C25.5023 3.95859 25.1086 3.62109 24.982 3.5578C24.6797 3.41015 24.307 3.41718 23.9906 3.5789C23.843 3.65624 19.6313 7.81874 14.2242 13.2328C3.91641 23.5547 4.47891 22.943 4.60547 23.6039C4.64062 23.8219 4.79531 24.0117 5.38594 24.6094L6.11016 25.3476L4.88672 26.5781C3.86719 27.6117 3.66328 27.8508 3.62109 28.0687C3.52969 28.5609 3.62812 28.8141 4.13438 29.3344L4.59844 29.8195L2.41172 32.0133C1.21641 33.2226 0.175781 34.2844 0.1125 34.3828C0.0421875 34.4883 0 34.6992 0 34.9453C0 35.3812 0.140625 35.6484 0.464062 35.8664C0.724219 36.0351 1.37109 36.0492 1.61719 35.8875C1.71562 35.8242 2.77734 34.7836 3.98672 33.5883L6.18047 31.4016L6.66562 31.8656C7.18594 32.3719 7.43906 32.4703 7.93125 32.3789C8.14922 32.3367 8.38828 32.1328 9.42188 31.1133L10.6523 29.8898L11.3906 30.6141C11.9883 31.2047 12.1781 31.3594 12.3961 31.3945C13.057 31.5211 12.4453 32.0836 22.7742 21.7758C29.3695 15.1875 32.3297 12.1851 32.4211 11.9883C32.5828 11.6437 32.5898 11.3133 32.4422 11.018C32.3789 10.8914 32.0414 10.4976 31.6898 10.1391L31.043 9.49218L32.2523 8.2828L33.4617 7.07343L33.7992 7.43202C34.2492 7.90312 34.5586 8.08593 34.9312 8.08593C35.2969 8.08593 35.5711 7.95234 35.8172 7.66405C35.9648 7.48124 36 7.36874 36 7.05937C36 6.84843 35.9578 6.58827 35.9016 6.48281C35.775 6.25077 29.7 0.189835 29.482 0.0773354C29.3977 0.0351486 29.1586 -7.62939e-06 28.9406 -7.62939e-06C28.6312 -7.62939e-06 28.5187 0.0351486 28.3359 0.182804ZM31.8516 5.51952C31.8516 5.55468 31.3242 6.11718 30.6773 6.76406L29.4961 7.9453L28.7789 7.22812L28.0547 6.5039L29.2641 5.29452L30.4805 4.07812L31.1625 4.76718C31.5422 5.13984 31.8516 5.47734 31.8516 5.51952ZM21.2555 20.1234L12.6211 28.7578L9.93516 26.0719L7.24219 23.3789L8.20547 22.4156L9.17578 21.4453L9.88594 22.1555C10.6383 22.9078 10.8633 23.0203 11.3695 22.943C11.7141 22.8867 12.1359 22.4719 12.1992 22.1273C12.2977 21.6 12.2062 21.4101 11.4398 20.6226L10.7297 19.8914L11.4258 19.1953L12.1219 18.4922L12.7617 19.118C13.4789 19.8211 13.718 19.9687 14.1469 19.9687C14.8992 19.9687 15.3984 19.1883 15.1172 18.45C15.075 18.3445 14.7445 17.9508 14.3789 17.5781L13.7109 16.9031L14.4141 16.207L15.1172 15.5109L15.7992 16.1789C16.2563 16.6289 16.5797 16.882 16.7555 16.9383C17.6344 17.2266 18.4641 16.3547 18.1125 15.5039C18.0492 15.3562 17.7047 14.9414 17.3531 14.5758L16.7062 13.9219L17.4023 13.2187L18.1055 12.5156L18.7734 13.1766C19.1391 13.5422 19.5117 13.8726 19.5961 13.9148C19.6805 13.957 19.8984 13.9922 20.0883 13.9922C20.707 13.9922 21.1641 13.5492 21.1641 12.9516C21.1641 12.5297 21.1008 12.4383 20.3344 11.6508L19.6523 10.9687L20.3695 10.2516L21.0867 9.53437L21.818 10.2445C22.6055 11.0109 22.7953 11.1023 23.3227 11.0039C23.6672 10.9406 24.082 10.5187 24.1383 10.1742C24.2227 9.66093 24.1031 9.44296 23.3508 8.69062L22.6406 7.98046L23.5687 7.05234L24.5039 6.11718L27.1898 8.80312L29.8828 11.4961L21.2555 20.1234ZM8.40234 27.6328L9.10547 28.3359L8.38125 29.0601L7.66406 29.7773L6.94687 29.0601L6.22266 28.3359L6.92578 27.6328C7.3125 27.2461 7.64297 26.9297 7.66406 26.9297C7.68516 26.9297 8.01562 27.2461 8.40234 27.6328Z" fill="#005C7E"/>
<path d="M27.1279 21.382C24.3225 22.0148 22.2693 23.9203 21.4467 26.6555C21.2709 27.2531 21.2568 27.3727 21.2568 28.6594C21.2568 29.9531 21.2639 30.0656 21.4467 30.6633C22.2271 33.2227 24.0412 35.0367 26.5936 35.8102C27.1912 35.9859 27.3037 36 28.5975 36C29.8842 36 30.0107 35.9859 30.6014 35.8102C33.1326 35.0508 34.9678 33.2156 35.7482 30.6633C35.9311 30.0656 35.9381 29.9531 35.9381 28.6594C35.9381 27.3656 35.9311 27.2531 35.7482 26.6555C35.1084 24.5672 33.7936 22.9711 31.9373 22.05C30.7771 21.4734 30.1865 21.3328 28.7732 21.3047C27.9154 21.2836 27.4514 21.3117 27.1279 21.382ZM29.7787 23.5687C30.7842 23.7797 31.86 24.4547 32.6264 25.3477C33.0342 25.8187 33.5475 26.8383 33.6881 27.4641C33.8287 28.0547 33.8287 29.2641 33.6951 29.8477C33.449 30.8672 32.767 31.9641 31.9162 32.6883C31.424 33.1102 30.4186 33.6094 29.7646 33.757C29.1389 33.9047 28.0561 33.9047 27.4303 33.757C26.3896 33.518 25.3139 32.843 24.5545 31.9641C24.1607 31.493 23.6475 30.4805 23.5068 29.8547C23.3451 29.1937 23.3592 28.0336 23.535 27.3656C24.0693 25.2773 25.9467 23.6602 28.0631 23.4633C28.6818 23.407 29.1178 23.4352 29.7787 23.5687Z" fill="#005C7E"/>
<g clip-path="url(#clip1_186_2064)">
<path d="M29.5843 28.4571L31.8388 30.7117L30.7116 31.839L28.457 29.5844L26.2025 31.839L25.0752 30.7117L27.3297 28.4571L25.0752 26.2026L26.2025 25.0753L28.457 27.3299L30.7116 25.0753L31.8388 26.2026L29.5843 28.4571Z" fill="#005C7E"/>
</g>
</g>
<defs>
<clipPath id="clip0_186_2064">
<rect width="36" height="36" fill="white"/>
</clipPath>
<clipPath id="clip1_186_2064">
<rect width="6.85714" height="6.85714" fill="white" transform="translate(25.0283 25.0286)"/>
</clipPath>
</defs>
</svg>
