<svg width="36" height="36" viewBox="0 0 36 36" fill="none" xmlns="http://www.w3.org/2000/svg">
<path d="M13.1906 2.31328C12.8039 2.57344 12.7266 2.77734 12.7266 3.56484V4.28906H9.86484C7.17188 4.28906 6.98203 4.29609 6.79219 4.42266C6.68672 4.49297 6.53203 4.64766 6.46172 4.75313C6.33516 4.94297 6.32812 5.13984 6.32812 8.01562C6.32109 13.5562 6.16641 15.4828 5.48438 18.225C4.54922 21.9656 2.62969 25.6148 0.625781 27.457C0.084375 27.9563 0 28.0969 0 28.5469C0 28.9828 0.140625 29.25 0.464062 29.468C0.653906 29.5945 0.84375 29.6016 3.50156 29.6016H6.32812V31.3734C6.32812 33.3352 6.34219 33.3844 6.79219 33.6867C6.98906 33.8133 7.40391 33.8203 21.1641 33.8203C34.9242 33.8203 35.3391 33.8133 35.5359 33.6867C35.6414 33.6164 35.7961 33.4617 35.8664 33.3563C35.993 33.1594 36 32.7445 36 19.0547C36 5.36485 35.993 4.95 35.8664 4.75313C35.7961 4.64766 35.6414 4.49297 35.5359 4.42266C35.3461 4.29609 35.1562 4.28906 32.5055 4.28906H29.6719V3.56484C29.6719 2.98125 29.6437 2.8125 29.5383 2.64375C29.3203 2.32031 29.0531 2.17969 28.6172 2.17969C28.1812 2.17969 27.9141 2.32031 27.6961 2.64375C27.5906 2.8125 27.5625 2.98125 27.5625 3.56484V4.28906H24.8906H22.2188V3.56484C22.2188 2.77734 22.1414 2.57344 21.7547 2.31328C21.4805 2.13047 20.8477 2.13047 20.5734 2.31328C20.1867 2.57344 20.1094 2.77734 20.1094 3.56484V4.28906H17.4727H14.8359V3.56484C14.8359 2.98125 14.8078 2.8125 14.7023 2.64375C14.4844 2.32031 14.2172 2.17969 13.7812 2.17969C13.5211 2.17969 13.3312 2.22188 13.1906 2.31328ZM12.7266 7.11563C12.7266 7.70625 12.7547 7.875 12.8602 8.04375C13.0781 8.36719 13.3453 8.50781 13.7812 8.50781C14.2172 8.50781 14.4844 8.36719 14.7023 8.04375C14.8078 7.875 14.8359 7.70625 14.8359 7.11563V6.39844H17.4727H20.1094V7.11563C20.1094 7.91016 20.1867 8.11406 20.5734 8.37422C20.8477 8.55703 21.4805 8.55703 21.7547 8.37422C22.1414 8.11406 22.2188 7.91016 22.2188 7.11563V6.39844H24.8906H27.5625V7.11563C27.5625 7.91016 27.6398 8.11406 28.0266 8.37422C28.3008 8.55703 28.9336 8.55703 29.2078 8.37422C29.5945 8.11406 29.6719 7.91016 29.6719 7.11563V6.39844H31.7812H33.8906V8.50781V10.6172H21.1641H8.4375V8.50781V6.39844H10.582H12.7266V7.11563ZM33.7922 13.4789C33.4688 18.7523 31.5844 23.6742 28.6242 26.9789L28.1742 27.4922H15.8414H3.51562L3.90234 26.9719C6.46172 23.5055 8.12813 18.5555 8.40938 13.5844L8.45859 12.7266H21.15H33.8414L33.7922 13.4789ZM33.8906 27.2461V31.7109H21.1641H8.4375V30.6562V29.6016H18.7242H29.018L29.2922 29.4047C30.4734 28.5398 32.618 25.5234 33.5672 23.3859C33.7148 23.0555 33.8484 22.7812 33.8625 22.7812C33.8766 22.7812 33.8906 24.7922 33.8906 27.2461Z" fill="#005C7E"/>
</svg>
